<?xml version="1.0" encoding="UTF-8"?>
<svg width="60px" height="38px" viewBox="0 0 60 38" version="1.1" xmlns="http://www.w3.org/2000/svg" xmlns:xlink="http://www.w3.org/1999/xlink">
    <title>编组 2</title>
    <defs>
        <filter x="-24.0%" y="-60.0%" width="148.0%" height="220.0%" filterUnits="objectBoundingBox" id="filter-1">
            <feOffset dx="0" dy="0" in="SourceAlpha" result="shadowOffsetOuter1"></feOffset>
            <feGaussianBlur stdDeviation="3" in="shadowOffsetOuter1" result="shadowBlurOuter1"></feGaussianBlur>
            <feColorMatrix values="0 0 0 0 0   0 0 0 0 0   0 0 0 0 0  0 0 0 0.5 0" type="matrix" in="shadowBlurOuter1" result="shadowMatrixOuter1"></feColorMatrix>
            <feMerge>
                <feMergeNode in="shadowMatrixOuter1"></feMergeNode>
                <feMergeNode in="SourceGraphic"></feMergeNode>
            </feMerge>
        </filter>
    </defs>
    <g id="页面-1" stroke="none" stroke-width="1" fill="none" fill-rule="evenodd">
        <g id="9" transform="translate(-95.000000, -118.000000)" fill="#FFFFFF">
            <g id="编组-2" filter="url(#filter-1)" transform="translate(100.000000, 127.000000)">
                <g id="轿车-汽车" fill-rule="nonzero">
                    <path d="M45.7017008,6.60687023 C43.0447685,6.09732824 37.6180612,5.52480916 35.4843086,4.80343511 C33.5659829,4.15648855 30.124281,0 20.9686358,0 C12.9260299,0 9.99212003,3.44656489 6.98640122,4.20229008 C6.98640122,4.20229008 2.82148028,5.10687023 2.14955338,5.40458015 C1.47762648,5.70229008 -0.0201037143,6.28625954 0.000413137595,7.20229008 L0.000413137595,12.0057252 C0.000413137595,12.0057252 0.226098509,13.6087786 1.61098601,13.8034351 L5.85651482,14.8167939 C5.64621709,10.6717557 15.5880914,10.4885496 15.5880914,13.8034351 C15.5880914,14.1526718 15.5573161,14.490458 15.506024,14.8167939 L15.5880914,15 L37.2077241,15 C37.1359151,14.610687 37.1102691,14.2099237 37.1000107,13.7977099 C37.0025556,10.3053435 46.4752532,14.610687 46.4034442,15 L47.8508411,15 C47.8508411,15 50.000171,14.7423664 50.000171,11.398855 C50.0051105,8.51335878 47.9021332,7.02480916 45.7017008,6.60687023 Z M13.2681521,4.44826555 C13.2681521,4.44826555 12.707549,4.3331627 12.707549,3.82027512 C12.707549,3.41708524 13.794753,2.64737243 17.3496783,2.20185387 C17.5354118,2.68989234 17.7657286,2.68989234 17.8404757,4.44826555 L13.2681521,4.44826555 Z M28.6743365,4.70552491 L19.5984629,4.49412536 C19.4055084,3.56939784 19.433895,2.9483415 18.993563,2.01850499 C19.6911676,1.9469791 20.4184575,1.90610717 21.1853278,1.90610717 C25.0889448,1.90610717 28.0694267,3.01541715 28.9006151,3.83796484 C28.9006151,3.83796484 29.9854373,4.70552491 28.6743365,4.70552491 Z" id="形状"></path>
                </g>
                <circle id="椭圆形备份" cx="41.75" cy="13.75" r="5.5"></circle>
                <circle id="椭圆形备份-2" cx="10.75" cy="13.75" r="5.5"></circle>
            </g>
        </g>
    </g>
</svg>