<?xml version="1.0" encoding="UTF-8"?>
<svg width="68px" height="66px" viewBox="0 0 68 66" version="1.1" xmlns="http://www.w3.org/2000/svg" xmlns:xlink="http://www.w3.org/1999/xlink">
    <title>编组 7备份 12</title>
    <defs>
        <filter x="-11.8%" y="-30.8%" width="123.5%" height="161.5%" filterUnits="objectBoundingBox" id="filter-1">
            <feOffset dx="0" dy="0" in="SourceAlpha" result="shadowOffsetOuter1"></feOffset>
            <feGaussianBlur stdDeviation="2" in="shadowOffsetOuter1" result="shadowBlurOuter1"></feGaussianBlur>
            <feColorMatrix values="0 0 0 0 1   0 0 0 0 1   0 0 0 0 1  0 0 0 0.5 0" type="matrix" in="shadowBlurOuter1" result="shadowMatrixOuter1"></feColorMatrix>
            <feMerge>
                <feMergeNode in="shadowMatrixOuter1"></feMergeNode>
                <feMergeNode in="SourceGraphic"></feMergeNode>
            </feMerge>
        </filter>
    </defs>
    <g id="页面-1" stroke="none" stroke-width="1" fill="none" fill-rule="evenodd">
        <g id="124" transform="translate(-1432.000000, -216.000000)" fill="#FFFFFF">
            <g id="编组-18" transform="translate(1432.000000, 216.000000)">
                <g id="编组-2备份" filter="url(#filter-1)" transform="translate(0.000000, 23.000000)">
                    <g id="轿车-汽车" fill-rule="nonzero">
                        <path d="M62.1543131,8.80916031 C58.5408852,8.12977099 51.1605632,7.36641221 48.2586596,6.40458015 C45.6497368,5.54198473 40.9690222,0 28.5173447,0 C17.5794006,0 13.5892832,4.59541985 9.50150566,5.60305344 C9.50150566,5.60305344 3.83721318,6.80916031 2.92339259,7.20610687 C2.00957201,7.60305344 -0.0273410515,8.38167939 0.000561867129,9.60305344 L0.000561867129,16.0076336 C0.000561867129,16.0076336 0.307493972,18.1450382 2.19094098,18.4045802 L7.96486016,19.7557252 C7.67885524,14.2290076 21.1998043,13.9847328 21.1998043,18.4045802 C21.1998043,18.870229 21.1579499,19.3206107 21.0881926,19.7557252 L21.1998043,20 L50.6025048,20 C50.5048446,19.480916 50.4699659,18.9465649 50.4560145,18.3969466 C50.3234756,13.740458 63.2063443,19.480916 63.1086841,20 L65.0771439,20 C65.0771439,20 68.0002326,19.6564885 68.0002326,15.1984733 C68.0069503,11.351145 65.1469011,9.36641221 62.1543131,8.80916031 Z M18.0446868,5.93102073 C18.0446868,5.93102073 17.2822666,5.77755026 17.2822666,5.09370016 C17.2822666,4.55611365 18.7608641,3.52982991 23.5955624,2.93580516 C23.84816,3.58652313 24.1613909,3.58652313 24.2630469,5.93102073 L18.0446868,5.93102073 Z M38.9970976,6.27403322 L26.6539095,5.99216714 C26.3914915,4.75919711 26.4300972,3.931122 25.8312457,2.69133998 C26.7799879,2.59597214 27.7691022,2.54147622 28.8120457,2.54147622 C34.120965,2.54147622 38.1744203,4.0205562 39.3048365,5.11728645 C39.3048365,5.11728645 40.7801947,6.27403322 38.9970976,6.27403322 Z" id="形状"></path>
                    </g>
                    <circle id="椭圆形备份" cx="56.5" cy="18.5" r="7.5"></circle>
                    <circle id="椭圆形备份-2" cx="14.5" cy="18.5" r="7.5"></circle>
                </g>
            </g>
        </g>
    </g>
</svg>