<?xml version="1.0" encoding="UTF-8"?>
<svg width="66px" height="66px" viewBox="0 0 66 66" version="1.1" xmlns="http://www.w3.org/2000/svg" xmlns:xlink="http://www.w3.org/1999/xlink">
    <title>编组 7备份 4</title>
    <defs>
        <filter x="-13.8%" y="-16.2%" width="127.6%" height="133.8%" filterUnits="objectBoundingBox" id="filter-1">
            <feOffset dx="0" dy="0" in="SourceAlpha" result="shadowOffsetOuter1"></feOffset>
            <feGaussianBlur stdDeviation="2" in="shadowOffsetOuter1" result="shadowBlurOuter1"></feGaussianBlur>
            <feColorMatrix values="0 0 0 0 1   0 0 0 0 1   0 0 0 0 1  0 0 0 0.5 0" type="matrix" in="shadowBlurOuter1" result="shadowMatrixOuter1"></feColorMatrix>
            <feMerge>
                <feMergeNode in="shadowMatrixOuter1"></feMergeNode>
                <feMergeNode in="SourceGraphic"></feMergeNode>
            </feMerge>
        </filter>
    </defs>
    <g id="页面-1" stroke="none" stroke-width="1" fill="none" fill-rule="evenodd">
        <g id="124" transform="translate(-73.000000, -216.000000)" fill="#FFFFFF" fill-rule="nonzero">
            <g id="编组-7" transform="translate(73.000000, 216.000000)">
                <g id="编组-7备份-4" transform="translate(3.000000, 8.000000)">
                    <g id="颜色备份-2" filter="url(#filter-1)" transform="translate(0.989011, 0.329670)">
                        <path d="M40.6087844,31.9198089 C24.1093448,43.0749551 36.2499132,49.3090301 29.0159703,49.3090301 C13.0091795,49.3090301 0.0339349867,38.2784782 0.0339349867,24.6743468 C0.0339349867,11.0702153 13.0091795,0.0396634615 29.0159703,0.0396634615 C45.0227611,0.0396634615 57.9980056,11.0702153 57.9980056,24.6743468 C57.9980056,32.1313889 50.9930771,24.8975082 40.6087844,31.9198712 L40.6087844,31.9198089 Z M11.6267491,20.327057 C8.42714686,20.327057 5.83034205,22.9238619 5.83034205,26.1234641 C5.83034205,29.3230664 8.42714686,31.9198712 11.6267491,31.9198712 C14.8263514,31.9198712 17.4231562,29.3230664 17.4231562,26.1234641 C17.4231562,22.9238619 14.8263514,20.327057 11.6267491,20.327057 L11.6267491,20.327057 Z M21.7704459,8.73424292 C19.3678488,8.73424292 17.4231562,10.6789356 17.4231562,13.0815327 C17.4231562,15.4841297 19.3678488,17.4288224 21.7704459,17.4288224 C24.173043,17.4288224 26.1177356,15.4841297 26.1177356,13.0815327 C26.1177356,10.6789356 24.173043,8.73424292 21.7704459,8.73424292 Z M36.2614947,5.83600826 C33.8588976,5.83600826 31.914205,7.78070093 31.914205,10.183298 C31.914205,12.585895 33.8588976,14.5305877 36.2614947,14.5305877 C38.6640917,14.5305877 40.6087844,12.585895 40.6087844,10.183298 C40.6087844,7.78070093 38.6640917,5.83600826 36.2614947,5.83600826 Z M46.4051915,14.53065 C44.8053904,14.53065 43.5070191,15.8290213 43.5070191,17.4288224 C43.5070191,19.0286235 44.8053904,20.3269948 46.4051915,20.3269948 C48.0049926,20.3269948 49.3033639,19.0286235 49.3033639,17.4288224 C49.3033639,15.8290213 48.0049926,14.53065 46.4051915,14.53065 Z" id="形状"></path>
                    </g>
                </g>
            </g>
        </g>
    </g>
</svg>