<?xml version="1.0" encoding="UTF-8"?>
<svg width="48px" height="48px" viewBox="0 0 48 48" version="1.1" xmlns="http://www.w3.org/2000/svg" xmlns:xlink="http://www.w3.org/1999/xlink">
    <title>编组备份 6</title>
    <defs>
        <filter x="-33.3%" y="-39.1%" width="166.7%" height="179.4%" filterUnits="objectBoundingBox" id="filter-1">
            <feOffset dx="0" dy="0" in="SourceAlpha" result="shadowOffsetOuter1"></feOffset>
            <feGaussianBlur stdDeviation="3" in="shadowOffsetOuter1" result="shadowBlurOuter1"></feGaussianBlur>
            <feColorMatrix values="0 0 0 0 0   0 0 0 0 0   0 0 0 0 0  0 0 0 0.5 0" type="matrix" in="shadowBlurOuter1" result="shadowMatrixOuter1"></feColorMatrix>
            <feMerge>
                <feMergeNode in="shadowMatrixOuter1"></feMergeNode>
                <feMergeNode in="SourceGraphic"></feMergeNode>
            </feMerge>
        </filter>
    </defs>
    <g id="页面-1" stroke="none" stroke-width="1" fill="none" fill-rule="evenodd">
        <g id="9" transform="translate(-162.000000, -113.000000)" fill="#FFFFFF" fill-rule="nonzero">
            <g id="颜色备份" filter="url(#filter-1)" transform="translate(168.000000, 122.000000)">
                <path d="M25.1959049,19.8047905 C14.9587526,26.7260517 22.4914234,30.5940118 18.0030907,30.5940118 C8.07160457,30.5940118 0.0210551168,23.7500558 0.0210551168,15.3093106 C0.0210551168,6.86856542 8.07160457,0.024609375 18.0030907,0.024609375 C27.9345768,0.024609375 35.9851262,6.86856542 35.9851262,15.3093106 C35.9851262,19.9360663 31.6388865,15.4477721 25.1959049,19.8048292 L25.1959049,19.8047905 Z M7.21386933,12.6120149 C5.22866157,12.6120149 3.61746223,14.2232143 3.61746223,16.208422 C3.61746223,18.1936298 5.22866157,19.8048292 7.21386933,19.8048292 C9.19907709,19.8048292 10.8102764,18.1936298 10.8102764,16.208422 C10.8102764,14.2232143 9.19907709,12.6120149 7.21386933,12.6120149 L7.21386933,12.6120149 Z M13.5075721,5.41920072 C12.0168698,5.41920072 10.8102764,6.62579413 10.8102764,8.11649639 C10.8102764,9.60719866 12.0168698,10.8137921 13.5075721,10.8137921 C14.9982744,10.8137921 16.2048678,9.60719866 16.2048678,8.11649639 C16.2048678,6.62579413 14.9982744,5.41920072 13.5075721,5.41920072 Z M22.4986092,3.62097785 C21.0079069,3.62097785 19.8013135,4.82757126 19.8013135,6.31827352 C19.8013135,7.80897579 21.0079069,9.0155692 22.4986092,9.0155692 C23.9893115,9.0155692 25.1959049,7.80897579 25.1959049,6.31827352 C25.1959049,4.82757126 23.9893115,3.62097785 22.4986092,3.62097785 Z M28.792312,9.01560783 C27.7997081,9.01560783 26.9941277,9.82118819 26.9941277,10.8137921 C26.9941277,11.8063959 27.7997081,12.6119763 28.792312,12.6119763 C29.7849159,12.6119763 30.5904962,11.8063959 30.5904962,10.8137921 C30.5904962,9.82118819 29.7849159,9.01560783 28.792312,9.01560783 Z" id="形状"></path>
            </g>
        </g>
    </g>
</svg>