<?xml version="1.0" encoding="UTF-8"?>
<svg width="24px" height="24px" viewBox="0 0 24 24" version="1.1" xmlns="http://www.w3.org/2000/svg" xmlns:xlink="http://www.w3.org/1999/xlink">
    <title>编组 3</title>
    <g id="页面-1" stroke="none" stroke-width="1" fill="none" fill-rule="evenodd">
        <g id="23备份" transform="translate(-741.000000, -292.000000)">
            <g id="编组-3" transform="translate(741.000000, 292.000000)">
                <path d="M18.3059616,22.1938835 C18.8030178,22.1938835 19.2059616,22.5968272 19.2059616,23.0938835 C19.2059616,23.5909398 18.8030178,23.9938835 18.3059616,23.9938835 L5.70596157,23.9938835 C5.20890529,23.9938835 4.80596157,23.5909398 4.80596157,23.0938835 C4.80596157,22.5968272 5.20890529,22.1938835 5.70596157,22.1938835 L18.3059616,22.1938835 Z M22,2.72848411e-13 C23.1045695,2.72645504e-13 24,0.8954305 24,2 L24,17.2 C24,18.3045695 23.1045695,19.2 22,19.2 L2,19.2 C0.8954305,19.2 2.09738034e-15,18.3045695 0,17.2 L0,2 C-1.3527075e-16,0.8954305 0.8954305,2.73051317e-13 2,2.72848411e-13 L22,2.72848411e-13 Z M21.2555133,1.83578376 L2.85551328,1.83578376 C2.30322853,1.83578376 1.85551328,2.28349901 1.85551328,2.83578376 L1.85551328,2.83578376 L1.85551328,16.4357838 C1.85551328,16.9880685 2.30322853,17.4357838 2.85551328,17.4357838 L2.85551328,17.4357838 L21.2555133,17.4357838 C21.807798,17.4357838 22.2555133,16.9880685 22.2555133,16.4357838 L22.2555133,16.4357838 L22.2555133,2.83578376 C22.2555133,2.28349901 21.807798,1.83578376 21.2555133,1.83578376 L21.2555133,1.83578376 Z M11.1336665,19.2003263 L12.9336665,19.2003263 L12.9336665,22.2003263 L11.1336665,22.2003263 L11.1336665,19.2003263 Z" id="形状结合" fill="#999999"></path>
                <rect id="矩形备份-15" fill="#42E2FF" x="4.8" y="8.4" width="14.4" height="2.4" rx="1"></rect>
            </g>
        </g>
    </g>
</svg>