<?xml version="1.0" encoding="UTF-8"?>
<svg width="66px" height="66px" viewBox="0 0 66 66" version="1.1" xmlns="http://www.w3.org/2000/svg" xmlns:xlink="http://www.w3.org/1999/xlink">
    <title>编组 7备份 10</title>
    <defs>
        <filter x="-13.3%" y="-13.1%" width="126.7%" height="126.2%" filterUnits="objectBoundingBox" id="filter-1">
            <feOffset dx="0" dy="0" in="SourceAlpha" result="shadowOffsetOuter1"></feOffset>
            <feGaussianBlur stdDeviation="2" in="shadowOffsetOuter1" result="shadowBlurOuter1"></feGaussianBlur>
            <feColorMatrix values="0 0 0 0 0.258823529   0 0 0 0 0.88627451   0 0 0 0 1  0 0 0 0.5 0" type="matrix" in="shadowBlurOuter1" result="shadowMatrixOuter1"></feColorMatrix>
            <feMerge>
                <feMergeNode in="shadowMatrixOuter1"></feMergeNode>
                <feMergeNode in="SourceGraphic"></feMergeNode>
            </feMerge>
        </filter>
    </defs>
    <g id="页面-1" stroke="none" stroke-width="1" fill="none" fill-rule="evenodd">
        <g id="124" transform="translate(-889.000000, -79.000000)" fill="#42E2FF" fill-rule="nonzero">
            <g id="编组-16" filter="url(#filter-1)" transform="translate(892.066201, 81.046609)">
                <path d="M29.5127162,8.02459162 C43.8135369,8.02459162 55.5160052,19.2929016 55.5160052,33.0608951 L55.5160052,51.3480532 C55.4633775,51.9795521 55.2791903,52.4400202 54.9831752,52.7228791 C54.6805819,53.005738 54.2332702,53.1307222 53.647818,53.0978316 L5.22631775,53.0978316 C5.22631775,53.0978316 4.27249116,53.0978316 3.89753864,52.7228791 C3.64757029,52.4729107 3.52258612,52.0190208 3.51600523,51.3480532 L3.51600523,33.0608951 C3.50942989,19.2863235 15.2118954,8.02459162 29.5127162,8.02459162 Z M8.04151224,48.9878973 C8.26726311,49.2387316 8.78147342,49.3641488 9.5778723,49.3641488 L49.429171,49.3641488 C50.1252362,49.3139819 50.5767379,49.1885648 50.7774053,48.9878973 C50.9780728,48.7872299 51.0784065,48.2918322 51.0784065,47.507975 L51.0784065,33.1226281 C51.0784065,21.6406883 41.4087444,12.0713599 29.4690319,12.0713599 C17.5293195,12.0713599 7.60882308,21.6406883 7.60882308,33.1226281 L7.60882308,47.5017041 C7.67153166,48.2416653 7.81576138,48.737063 8.04151224,48.9878973 Z M11.4919222,56.5996034 L47.3490651,56.5996034 C48.4583088,56.5996034 49.3490651,57.4987631 49.3490651,58.5996034 C49.3490651,59.7088471 48.4499054,60.5996034 47.3490651,60.5996034 L11.4919222,60.5996034 C10.3826785,60.5996034 9.49186381,59.7004437 9.49186381,58.5996034 C9.48351888,57.4987631 10.3826785,56.5996034 11.4919222,56.5996034 Z" id="形状"></path>
                <path d="M54.4326451,34.5715554 L58.4143568,34.5715554 C58.9137353,34.5715554 59.6794491,35.7966974 59.659474,37.0884233 C59.6394988,38.3135653 58.9137353,39.6052912 58.4143568,39.6052912 L54.4326451,39.6052912 L54.4326451,34.5715554 L54.4326451,34.5715554 Z M6.55888804,34.5715554 L1.24550026,34.5715554 C0.746121707,34.5715554 -0.019592071,35.7966974 0.000383071005,37.0884233 C0.0203582131,38.3135653 0.746121707,39.6052912 1.24550026,39.6052912 L6.55888804,39.6052912 L6.55888804,34.5715554 L6.55888804,34.5715554 Z M29.3766851,0.97631911 C30.3546263,0.97631911 31.3766851,1.82190734 31.3766851,2.32926029 L31.3766851,10.3439662 L27.3766851,10.3439662 L27.3766851,2.32926029 C27.3766851,1.83661323 28.398744,0.97631911 29.3766851,0.97631911 Z M35.6801593,33.2581676 C35.6801593,35.4615574 37.4682949,37.2581676 39.6801593,37.2581676 C41.8835492,37.2581676 43.6801593,35.470032 43.6801593,33.2581676 C43.6801593,31.0547778 41.8920238,29.2581676 39.6801593,29.2581676 C37.4682949,29.2666422 35.6801593,31.0547778 35.6801593,33.2581676 Z M15.7008447,33.2581676 C15.7008447,35.4615574 17.4889803,37.2581676 19.7008447,37.2581676 C21.9127091,37.2581676 23.7008447,35.470032 23.7008447,33.2581676 C23.7008447,31.0547778 21.9127091,29.2581676 19.7008447,29.2581676 C17.4889803,29.2581676 15.7008447,31.0547778 15.7008447,33.2581676 Z" id="形状"></path>
            </g>
        </g>
    </g>
</svg>