<?xml version="1.0" encoding="UTF-8"?>
<svg width="48px" height="48px" viewBox="0 0 48 48" version="1.1" xmlns="http://www.w3.org/2000/svg" xmlns:xlink="http://www.w3.org/1999/xlink">
    <title>编组备份 19</title>
    <defs>
        <filter x="-21.4%" y="-21.1%" width="144.5%" height="142.1%" filterUnits="objectBoundingBox" id="filter-1">
            <feOffset dx="0" dy="0" in="SourceAlpha" result="shadowOffsetOuter1"></feOffset>
            <feGaussianBlur stdDeviation="2" in="shadowOffsetOuter1" result="shadowBlurOuter1"></feGaussianBlur>
            <feColorMatrix values="0 0 0 0 1   0 0 0 0 1   0 0 0 0 1  0 0 0 0.5 0" type="matrix" in="shadowBlurOuter1" result="shadowMatrixOuter1"></feColorMatrix>
            <feMerge>
                <feMergeNode in="shadowMatrixOuter1"></feMergeNode>
                <feMergeNode in="SourceGraphic"></feMergeNode>
            </feMerge>
        </filter>
    </defs>
    <g id="页面-1" stroke="none" stroke-width="1" fill="none" fill-rule="evenodd">
        <g id="9" transform="translate(-642.000000, -113.000000)" fill="#FFFFFF" fill-rule="nonzero">
            <g id="编组-13" transform="translate(647.000000, 118.000000)">
                <g id="编组-16备份" filter="url(#filter-1)" transform="translate(0.041240, 0.029035)">
                    <path d="M18.3849707,4.99892593 C27.2936787,4.99892593 34.5837392,12.0185289 34.5837392,20.5953117 L34.5837392,31.9873118 C34.5509565,32.3807046 34.4362169,32.6675535 34.2518141,32.8437607 C34.0633133,33.0199679 33.7846601,33.0978269 33.4199522,33.0773377 L3.25573893,33.0773377 C3.25573893,33.0773377 2.66155187,33.0773377 2.42797489,32.8437607 C2.2722569,32.6880427 2.19439791,32.4052917 2.19029834,31.9873118 L2.19029834,20.5953117 C2.18620223,12.014431 9.47626273,4.99892593 18.3849707,4.99892593 Z M5.00946664,30.5170508 C5.15009833,30.6733082 5.47042606,30.7514369 5.9665434,30.7514369 L30.7919426,30.7514369 C31.2255569,30.7201855 31.5068203,30.6420567 31.6318263,30.5170508 C31.7568322,30.3920448 31.8193352,30.0834364 31.8193352,29.595132 L31.8193352,20.6337684 C31.8193352,13.4810845 25.7956113,7.51986354 18.3577576,7.51986354 C10.9199039,7.51986354 4.73992258,13.4810845 4.73992258,20.6337684 L4.73992258,29.5912255 C4.77898693,30.0521849 4.86883496,30.3607934 5.00946664,30.5170508 Z M7.15890238,35.2587693 L29.4961389,35.2587693 C30.1871432,35.2587693 30.7420406,35.8189016 30.7420406,36.504671 C30.7420406,37.1956752 30.1819083,37.7505726 29.4961389,37.7505726 L7.15890238,37.7505726 C6.46789811,37.7505726 5.91296434,37.1904404 5.91296434,36.504671 C5.90776586,35.8189016 6.46789811,35.2587693 7.15890238,35.2587693 Z" id="形状"></path>
                    <path d="M33.9088609,21.5363788 L36.3892714,21.5363788 C36.7003597,21.5363788 37.1773617,22.299582 37.1649182,23.1042637 C37.1524747,23.8674669 36.7003597,24.6721486 36.3892714,24.6721486 L33.9088609,24.6721486 L33.9088609,21.5363788 L33.9088609,21.5363788 Z M4.08586468,21.5363788 L0.775885407,21.5363788 C0.464797129,21.5363788 -0.0122048967,22.299582 0.000238634397,23.1042637 C0.0126821655,23.8674669 0.464797129,24.6721486 0.775885407,24.6721486 L4.08586468,24.6721486 L4.08586468,21.5363788 L4.08586468,21.5363788 Z M18.3002301,0.60819879 C18.9094393,0.60819879 19.5461317,1.13495867 19.5461317,1.4510146 L19.5461317,6.4437822 L17.0543285,6.4437822 L17.0543285,1.4510146 C17.0543285,1.14411972 17.6910208,0.60819879 18.3002301,0.60819879 Z M22.2269845,20.7182028 C22.2269845,22.0908063 23.340905,23.2100061 24.7187878,23.2100061 C26.0913913,23.2100061 27.2105911,22.0960855 27.2105911,20.7182028 C27.2105911,19.3455993 26.0966705,18.2263995 24.7187878,18.2263995 C23.340905,18.2316787 22.2269845,19.3455993 22.2269845,20.7182028 Z M9.78085409,20.7182028 C9.78085409,22.0908063 10.8947746,23.2100061 12.2726574,23.2100061 C13.6505401,23.2100061 14.7644606,22.0960855 14.7644606,20.7182028 C14.7644606,19.3455993 13.6505401,18.2263995 12.2726574,18.2263995 C10.8947746,18.2263995 9.78085409,19.3455993 9.78085409,20.7182028 Z" id="形状"></path>
                </g>
            </g>
        </g>
    </g>
</svg>