<?xml version="1.0" encoding="UTF-8"?>
<svg width="48px" height="48px" viewBox="0 0 48 48" version="1.1" xmlns="http://www.w3.org/2000/svg" xmlns:xlink="http://www.w3.org/1999/xlink">
    <title>编组备份 13</title>
    <defs>
        <filter x="-21.1%" y="-20.7%" width="142.1%" height="142.4%" filterUnits="objectBoundingBox" id="filter-1">
            <feOffset dx="0" dy="0" in="SourceAlpha" result="shadowOffsetOuter1"></feOffset>
            <feGaussianBlur stdDeviation="2" in="shadowOffsetOuter1" result="shadowBlurOuter1"></feGaussianBlur>
            <feColorMatrix values="0 0 0 0 0.258823529   0 0 0 0 0.88627451   0 0 0 0 1  0 0 0 0.5 0" type="matrix" in="shadowBlurOuter1" result="shadowMatrixOuter1"></feColorMatrix>
            <feMerge>
                <feMergeNode in="shadowMatrixOuter1"></feMergeNode>
                <feMergeNode in="SourceGraphic"></feMergeNode>
            </feMerge>
        </filter>
    </defs>
    <g id="页面-1" stroke="none" stroke-width="1" fill="none" fill-rule="evenodd">
        <g id="9" transform="translate(-642.000000, -41.000000)" fill="#42E2FF" fill-rule="nonzero">
            <g id="编组-16" filter="url(#filter-1)" transform="translate(647.066201, 45.046609)">
                <path d="M18.6913869,5.08224136 C27.7485734,5.08224136 35.1601349,12.2188377 35.1601349,20.9385669 L35.1601349,32.5204337 C35.1268058,32.920383 35.0101539,33.2120128 34.8226776,33.3911567 C34.6310352,33.5703007 34.3477378,33.6494574 33.9769514,33.6286267 L3.31000124,33.6286267 C3.31000124,33.6286267 2.70591107,33.6286267 2.46844114,33.3911567 C2.31012785,33.2328435 2.23097121,32.9453799 2.22680331,32.5204337 L2.22680331,20.9385669 C2.22263893,12.2146715 9.63420044,5.08224136 18.6913869,5.08224136 Z M5.09295775,31.0256683 C5.2359333,31.18453 5.56159983,31.2639609 6.06598579,31.2639609 L31.3051416,31.2639609 C31.7459829,31.2321885 32.031934,31.1527577 32.1590234,31.0256683 C32.2861127,30.8985789 32.3496574,30.584827 32.3496574,30.0883842 L32.3496574,20.9776645 C32.3496574,13.7057692 26.2255381,7.6451946 18.6637202,7.6451946 C11.1019023,7.6451946 4.81892129,13.7057692 4.81892129,20.9776645 L4.81892129,30.0844126 C4.85863672,30.5530547 4.94998221,30.8668066 5.09295775,31.0256683 Z M7.27821742,35.8464155 L29.9877412,35.8464155 C30.6902622,35.8464155 31.2544079,36.4158833 31.2544079,37.1130822 C31.2544079,37.8156032 30.6849401,38.3797488 29.9877412,38.3797488 L7.27821742,38.3797488 C6.57569641,38.3797488 6.01151375,37.810281 6.01151375,37.1130822 C6.00622862,36.4158833 6.57569641,35.8464155 7.27821742,35.8464155 Z" id="形状"></path>
                <path d="M34.4740086,21.8953184 L36.9957593,21.8953184 C37.3120324,21.8953184 37.7969844,22.6712417 37.7843335,23.4893348 C37.7716826,24.265258 37.3120324,25.0833511 36.9957593,25.0833511 L34.4740086,25.0833511 L34.4740086,21.8953184 L34.4740086,21.8953184 Z M4.15396243,21.8953184 L0.78881683,21.8953184 C0.472543748,21.8953184 -0.0124083117,22.6712417 0.000242611637,23.4893348 C0.0128935349,24.265258 0.472543748,25.0833511 0.78881683,25.0833511 L4.15396243,25.0833511 L4.15396243,21.8953184 L4.15396243,21.8953184 Z M18.6052339,0.618335436 C19.2245967,0.618335436 19.8719006,1.15387465 19.8719006,1.47519818 L19.8719006,6.55117857 L17.3385673,6.55117857 L17.3385673,1.47519818 C17.3385673,1.16318838 17.9858712,0.618335436 18.6052339,0.618335436 Z M22.5974343,21.0635062 C22.5974343,22.4589864 23.7299201,23.5968395 25.1307676,23.5968395 C26.5262478,23.5968395 27.6641009,22.4643536 27.6641009,21.0635062 C27.6641009,19.6680259 26.531615,18.5301728 25.1307676,18.5301728 C23.7299201,18.5355401 22.5974343,19.6680259 22.5974343,21.0635062 Z M9.94386832,21.0635062 C9.94386832,22.4589864 11.0763542,23.5968395 12.4772017,23.5968395 C13.8780491,23.5968395 15.010535,22.4643536 15.010535,21.0635062 C15.010535,19.6680259 13.8780491,18.5301728 12.4772017,18.5301728 C11.0763542,18.5301728 9.94386832,19.6680259 9.94386832,21.0635062 Z" id="形状"></path>
            </g>
        </g>
    </g>
</svg>