<?xml version="1.0" encoding="UTF-8"?>
<svg width="66px" height="66px" viewBox="0 0 66 66" version="1.1" xmlns="http://www.w3.org/2000/svg" xmlns:xlink="http://www.w3.org/1999/xlink">
    <title>编组 7备份 12</title>
    <defs>
        <path d="M54.6546222,31.7348679 L32.9855072,31.7348679 L32.9855072,21.9323833 L54.6546222,21.9323833 C55.8149496,21.9323833 56.7300453,22.4816709 56.7300453,23.5098039 L56.7300453,29.6786019 C56.7300453,30.7067349 55.8149496,31.7348679 54.6546222,31.7348679 Z M51.2648687,55.5589541 L35.8742477,55.5589541 L35.8742477,36.4143223 L52.2496869,36.4143223 L52.2496869,54.7748231 C52.2496869,55.2028986 51.9023136,55.5589541 51.2648687,55.5589541 Z M13.7069474,54.7748231 L13.7069474,36.4143223 L29.7561807,36.4143223 L29.7561807,55.5589541 L14.6365779,55.5589541 C13.9168573,55.5589541 13.7069474,55.3957442 13.7069474,54.7748231 Z M9.28217524,23.5098039 C9.28217524,22.4816709 10.1560649,21.9323833 11.3163923,21.9323833 L32.9855072,21.9323833 L32.9855072,31.7348679 L11.3163923,31.7348679 C9.77895845,31.7348679 9.28217524,31.0408781 9.28217524,29.6786019 L9.28217524,23.5098039 Z M25.9661039,7.61466571 C28.4173122,7.61466571 30.2499914,9.45225819 30.2499914,11.9100381 L30.2499914,16.1824406 L25.9661039,16.1824406 C23.5148955,16.1824406 21.6822164,14.3448482 21.6822164,11.8870682 C21.6822164,9.42928829 23.5148955,7.61466571 25.9661039,7.61466571 Z M40.1323168,7.59948253 C42.5835252,7.59948253 44.4162043,9.43707501 44.4162043,11.8948549 C44.4162043,14.3526349 42.5835252,16.1672575 40.1323168,16.1672575 L35.8484293,16.1672575 L35.8484293,11.871885 C35.8484293,9.43707501 38.0018273,7.59948253 40.1323168,7.59948253 Z M4,30.0724638 C4,32.7681159 5.53623188,34.7101449 8.26086957,35.4927536 L8.26086957,55.2028986 C8.26086957,58.3043478 10.5797101,60.6231884 13.6811594,60.6231884 L52.3188406,60.6231884 C55.4202899,60.6231884 57.7391304,58.3043478 57.7391304,55.2028986 L57.7391304,35.8695652 C60.4347826,35.0869565 62,32.7681159 62,30.0724638 L62,23.115942 C62,20.0144928 59.3043478,17.3188406 56.2028986,17.3188406 L46.9275362,17.3188406 C48.0869565,15.7826087 48.8695652,13.8405797 48.8695652,11.8985507 C48.8695652,6.88405797 45.0144928,3 39.9710145,3 C37.2753623,3 34.5507246,4.53623188 33.0144928,6.47826087 C31.4782609,4.53623188 28.7536232,3 26.057971,3 C21.0144928,3.02898551 17.1304348,6.88405797 17.1304348,11.8985507 C17.1304348,13.8405797 17.9130435,15.7826087 19.0724638,17.3188406 L9.79710145,17.3188406 C6.69565217,17.3188406 4,20.0144928 4,23.115942 L4,30.0724638 Z" id="path-1"></path>
        <filter x="-10.3%" y="-10.4%" width="120.7%" height="120.8%" filterUnits="objectBoundingBox" id="filter-2">
            <feOffset dx="0" dy="0" in="SourceAlpha" result="shadowOffsetOuter1"></feOffset>
            <feGaussianBlur stdDeviation="2" in="shadowOffsetOuter1" result="shadowBlurOuter1"></feGaussianBlur>
            <feColorMatrix values="0 0 0 0 1   0 0 0 0 1   0 0 0 0 1  0 0 0 0.5 0" type="matrix" in="shadowBlurOuter1"></feColorMatrix>
        </filter>
    </defs>
    <g id="页面-1" stroke="none" stroke-width="1" fill="none" fill-rule="evenodd">
        <g id="124" transform="translate(-1161.000000, -216.000000)" fill-rule="nonzero">
            <g id="形状备份-5" transform="translate(1161.000000, 216.000000)">
                <use fill="black" fill-opacity="1" filter="url(#filter-2)" xlink:href="#path-1"></use>
                <use fill="#FFFFFF" xlink:href="#path-1"></use>
            </g>
        </g>
    </g>
</svg>