<svg width="48" height="48" xmlns="http://www.w3.org/2000/svg"><defs><filter id="prefix__a"><feColorMatrix in="SourceGraphic" values="0 0 0 0 0.258824 0 0 0 0 0.886275 0 0 0 0 1.000000 0 0 0 1.000000 0"/></filter><filter x="-27.6%" y="-27.6%" width="155.3%" height="155.3%" filterUnits="objectBoundingBox" id="prefix__b"><feOffset dy="1" in="SourceAlpha" result="shadowOffsetOuter1"/><feGaussianBlur stdDeviation="2" in="shadowOffsetOuter1" result="shadowBlurOuter1"/><feColorMatrix values="0 0 0 0 0.258823529 0 0 0 0 0.88627451 0 0 0 0 1 0 0 0 0.5 0" in="shadowBlurOuter1" result="shadowMatrixOuter1"/><feMerge><feMergeNode in="shadowMatrixOuter1"/><feMergeNode in="SourceGraphic"/></feMerge></filter></defs><g transform="translate(-35 -41)" filter="url(#prefix__a)" fill="none" fill-rule="evenodd"><g filter="url(#prefix__b)" transform="translate(40 46)" fill="#FFF"><path d="M19 38C8.507 38 0 29.493 0 19S8.507 0 19 0s19 8.507 19 19-8.507 19-19 19zm0-4c8.284 0 15-6.716 15-15 0-8.284-6.716-15-15-15-8.284 0-15 6.716-15 15 0 8.284 6.716 15 15 15z" fill-rule="nonzero"/><path d="M24.15 37.294c-1.677.47-3.41.707-5.15.706-1.352 0-2.67-.141-3.942-.41a10.81 10.81 0 001.228-5.019c0-5.996-4.861-10.857-10.857-10.857-1.811 0-3.518.444-5.02 1.228A19.079 19.079 0 010 19c.768.008 1.524-4.056 2.27-4.05 9.95.082 18.233-.01 32.928-.02C36.107 14.929 37.04 19 38 19c0 1.156-.103 2.288-.3 3.387a10.835 10.835 0 00-3.771-.673c-5.997 0-10.858 4.861-10.858 10.857 0 1.693.388 3.295 1.079 4.723z" fill-rule="nonzero"/><circle cx="19" cy="18.05" r="4.75"/></g></g></svg>