<?xml version="1.0" encoding="UTF-8"?>
<svg width="66px" height="66px" viewBox="0 0 66 66" version="1.1" xmlns="http://www.w3.org/2000/svg" xmlns:xlink="http://www.w3.org/1999/xlink">
    <title>编组 7备份 7</title>
    <defs>
        <filter id="filter-1">
            <feColorMatrix in="SourceGraphic" type="matrix" values="0 0 0 0 0.258824 0 0 0 0 0.886275 0 0 0 0 1.000000 0 0 0 1.000000 0"></feColorMatrix>
        </filter>
        <filter x="-14.0%" y="-14.6%" width="128.1%" height="129.3%" filterUnits="objectBoundingBox" id="filter-2">
            <feOffset dx="0" dy="0" in="SourceAlpha" result="shadowOffsetOuter1"></feOffset>
            <feGaussianBlur stdDeviation="2" in="shadowOffsetOuter1" result="shadowBlurOuter1"></feGaussianBlur>
            <feColorMatrix values="0 0 0 0 0.258823529   0 0 0 0 0.88627451   0 0 0 0 1  0 0 0 0.5 0" type="matrix" in="shadowBlurOuter1" result="shadowMatrixOuter1"></feColorMatrix>
            <feMerge>
                <feMergeNode in="shadowMatrixOuter1"></feMergeNode>
                <feMergeNode in="SourceGraphic"></feMergeNode>
            </feMerge>
        </filter>
    </defs>
    <g id="页面-1" stroke="none" stroke-width="1" fill="none" fill-rule="evenodd">
        <g id="124" transform="translate(-481.000000, -79.000000)">
            <g id="编组-10备份" transform="translate(481.000000, 79.000000)">
                <g id="透视备份" transform="translate(5.000000, 5.000000)" filter="url(#filter-1)">
                    <g filter="url(#filter-2)" transform="translate(0.180124, 0.360248)">
                        <path d="M51.7549486,39.6068882 L51.7549486,13.0530899 L25.330776,23.2028867 L25.330776,49.4748426 L51.7549486,39.6068882 Z M55.9423743,43.0490531 L23.9701021,54.6060804 L0.0877914616,41.8341371 L0.0877914616,10.60126 L34.8547778,0 L55.9423743,9.0593821 L55.9423743,43.0490531 Z M7.15300916,11.6349737 L23.8251374,18.2645256 L48.0826217,9.54325291 L34.8585073,3.6277938 L7.15300916,11.6349737 Z M20.4107371,48.1286418 L20.4107371,23.2028867 L4.48062372,15.6413521 L4.48062372,40.1156999 L20.4107371,48.1286418 Z" id="形状" fill="#FFFFFF" fill-rule="nonzero"></path>
                        <rect id="矩形" fill="#FFFFFF" fill-rule="nonzero" x="33.5792283" y="1.69140043" width="3.29370009" height="8.27364855" rx="1"></rect>
                        <rect id="矩形备份-9" fill="#FFFFFF" fill-rule="nonzero" x="33.5792283" y="23.2028867" width="3.29370009" height="8.27364855" rx="1"></rect>
                        <path d="M41.5996778,30.9932539 L42.9051845,30.9905588 C43.4574681,30.9894187 43.9061067,31.4362087 43.9072468,31.9884923 C43.9072497,31.9898702 43.9072497,31.9912481 43.9072468,31.992626 L43.8977376,36.5878931 C43.896598,37.138563 43.4504741,37.5846848 42.8998041,37.5858216 L41.5942974,37.5885167 C41.0420138,37.5896569 40.5933752,37.1428668 40.5922351,36.5905833 C40.5922322,36.5892053 40.5922322,36.5878274 40.5922351,36.5864495 L40.6017443,31.9911825 C40.6028839,31.4405125 41.0490079,30.9943908 41.5996778,30.9932539 Z" id="矩形备份-10" fill="#FFFFFF" fill-rule="nonzero" transform="translate(42.249741, 34.289538) rotate(-240.000000) translate(-42.249741, -34.289538) "></path>
                        <path d="M26.33487,29.8387118 L27.6428186,29.8405431 C28.1940075,29.8413149 28.6406428,30.2879478 28.6414175,30.8391366 L28.6501853,37.0771431 C28.6509616,37.6294273 28.203876,38.0777714 27.6515918,38.0785477 C27.6506566,38.078549 27.6497214,38.078549 27.6487862,38.0785477 L26.3408375,38.0767164 C25.7896487,38.0759447 25.3430134,37.6293118 25.3422387,37.0781229 L25.3334709,30.8401164 C25.3326946,30.2878322 25.7797801,29.8394881 26.3320643,29.8387118 C26.3329996,29.8387105 26.3339348,29.8387105 26.33487,29.8387118 Z" id="矩形备份-12" fill="#FFFFFF" fill-rule="nonzero" transform="translate(26.991828, 33.958630) rotate(-108.000000) translate(-26.991828, -33.958630) "></path>
                        <path d="M15.3234616,34.0252308 L16.6314102,34.0270621 C17.1825991,34.0278338 17.6292344,34.4744667 17.6300091,35.0256556 L17.6364611,39.6160596 C17.6372374,40.1683438 17.1901519,40.6166879 16.6378677,40.6174642 C16.6369324,40.6174655 16.6359972,40.6174655 16.635062,40.6174642 L15.3271134,40.6156329 C14.7759245,40.6148612 14.3292892,40.1682283 14.3285145,39.6170394 L14.3220625,35.0266354 C14.3212862,34.4743512 14.7683717,34.0260071 15.3206559,34.0252308 C15.3215912,34.0252295 15.3225264,34.0252295 15.3234616,34.0252308 Z" id="矩形备份-14" fill="#FFFFFF" fill-rule="nonzero" transform="translate(15.979262, 37.321347) rotate(-108.000000) translate(-15.979262, -37.321347) "></path>
                        <path d="M4.92603964,36.4583277 L6.23443911,36.4598858 C6.78579165,36.4605424 7.23258823,36.9073368 7.23324754,37.4586893 L7.24070553,43.6955744 C7.24136595,44.2478588 6.79418639,44.6961091 6.24190204,44.6967695 C6.24110649,44.6967705 6.24031094,44.6967705 6.23951539,44.6967695 L4.93111593,44.6952114 C4.37976338,44.6945548 3.9329668,44.2477605 3.9323075,43.6964079 L3.9248495,37.4595228 C3.92418908,36.9072384 4.37136864,36.4589881 4.923653,36.4583277 C4.92444854,36.4583267 4.92524409,36.4583267 4.92603964,36.4583277 Z" id="矩形备份-13" fill="#FFFFFF" fill-rule="nonzero" transform="translate(5.582778, 40.577549) rotate(-105.000000) translate(-5.582778, -40.577549) "></path>
                        <path d="M51.3306749,35.903604 L52.6361817,35.9009089 C53.1884653,35.8997688 53.6371038,36.3465588 53.638244,36.8988424 C53.6382468,36.9002203 53.6382468,36.9015982 53.638244,36.9029761 L53.6253227,43.1470631 C53.6241832,43.697733 53.1780592,44.1438548 52.6273893,44.1449916 L51.3218825,44.1476868 C50.769599,44.1488269 50.3209604,43.7020369 50.3198203,43.1497533 C50.3198174,43.1483754 50.3198174,43.1469975 50.3198203,43.1456195 L50.3327415,36.9015325 C50.333881,36.3508626 50.780005,35.9047408 51.3306749,35.903604 Z" id="矩形备份-11" fill="#FFFFFF" fill-rule="nonzero" transform="translate(51.979032, 40.024298) rotate(-240.000000) translate(-51.979032, -40.024298) "></path>
                    </g>
                </g>
            </g>
        </g>
    </g>
</svg>