<?xml version="1.0" encoding="UTF-8"?>
<svg width="48px" height="48px" viewBox="0 0 48 48" version="1.1" xmlns="http://www.w3.org/2000/svg" xmlns:xlink="http://www.w3.org/1999/xlink">
    <title>编组备份 10</title>
    <defs>
        <filter x="-27.6%" y="-29.2%" width="155.3%" height="158.3%" filterUnits="objectBoundingBox" id="filter-1">
            <feOffset dx="0" dy="1" in="SourceAlpha" result="shadowOffsetOuter1"></feOffset>
            <feGaussianBlur stdDeviation="2" in="shadowOffsetOuter1" result="shadowBlurOuter1"></feGaussianBlur>
            <feColorMatrix values="0 0 0 0 0.258823529   0 0 0 0 0.88627451   0 0 0 0 1  0 0 0 0.5 0" type="matrix" in="shadowBlurOuter1" result="shadowMatrixOuter1"></feColorMatrix>
            <feMerge>
                <feMergeNode in="shadowMatrixOuter1"></feMergeNode>
                <feMergeNode in="SourceGraphic"></feMergeNode>
            </feMerge>
        </filter>
    </defs>
    <g id="页面-1" stroke="none" stroke-width="1" fill="none" fill-rule="evenodd">
        <g id="9" transform="translate(-397.000000, -41.000000)" fill="#42E2FF" fill-rule="nonzero">
            <g id="透视备份" filter="url(#filter-1)" transform="translate(402.000000, 47.000000)">
                <path d="M34.8031547,26.1115239 L34.8031547,8.60547455 L17.3825633,15.2969031 L17.3825633,32.617143 L34.8031547,26.1115239 Z M37.5637873,28.3808305 L16.4855156,36 L0.740690535,27.5798762 L0.740690535,6.98906346 L23.6614257,-2.71298135e-14 L37.5637873,5.97255385 L37.5637873,28.3808305 Z M5.39855712,7.67055704 L16.3899451,12.0412034 L32.3821099,6.29155402 L23.6638845,2.39168561 L5.39855712,7.67055704 Z M14.1389428,31.7296369 L14.1389428,15.2969031 L3.63674094,10.3118311 L3.63674094,26.4469668 L14.1389428,31.7296369 Z" id="形状"></path>
                <rect id="矩形" x="22.8204977" y="1.1150849" width="2.17142857" height="5.45454545" rx="1"></rect>
                <rect id="矩形备份-9" x="22.8204977" y="15.2969031" width="2.17142857" height="5.45454545" rx="1"></rect>
                <path d="M28.4474437,20.4321365 L28.6266517,20.4317666 C29.1789353,20.4306264 29.6275738,20.8774164 29.628714,21.4297 C29.6287168,21.4310779 29.6287168,21.4324558 29.628714,21.4338338 L29.623855,23.7818729 C29.6227155,24.3325428 29.1765915,24.7786646 28.6259216,24.7798014 L28.4467136,24.7801714 C27.8944301,24.7813115 27.4457915,24.3345215 27.4446514,23.7822379 C27.4446485,23.78086 27.4446485,23.7794821 27.4446514,23.7781042 L27.4495103,21.430065 C27.4506498,20.8793951 27.8967738,20.4332733 28.4474437,20.4321365 Z" id="矩形备份-10" transform="translate(28.536683, 22.605969) rotate(-240.000000) translate(-28.536683, -22.605969) "></path>
                <path d="M18.3862194,19.6721636 L18.5670395,19.6724168 C19.1182284,19.6731886 19.5648637,20.1198215 19.5656384,20.6710103 L19.5704609,24.1020561 C19.5712371,24.6543403 19.1241516,25.1026844 18.5718674,25.1034607 C18.5709322,25.103462 18.569997,25.103462 18.5690617,25.1034607 L18.3882416,25.1032075 C17.8370527,25.1024358 17.3904174,24.6558029 17.3896427,24.104614 L17.3848202,20.6735682 C17.384044,20.121284 17.8311295,19.6729399 18.3834137,19.6721637 C18.3843489,19.6721623 18.3852841,19.6721623 18.3862194,19.6721636 Z" id="矩形备份-12" transform="translate(18.477641, 22.387812) rotate(-108.000000) translate(-18.477641, -22.387812) "></path>
                <path d="M11.1267585,22.4321985 L11.3075787,22.4324516 C11.8587675,22.4332234 12.3054028,22.8798563 12.3061776,23.4310451 L12.3094733,25.7758806 C12.3102496,26.3281648 11.8631641,26.7765089 11.3108799,26.7772851 C11.3099446,26.7772865 11.3090094,26.7772865 11.3080742,26.7772852 L11.127254,26.777032 C10.5760652,26.7762602 10.1294299,26.3296273 10.1286551,25.7784385 L10.1253594,23.433603 C10.1245831,22.8813188 10.5716686,22.4329747 11.1239529,22.4321985 C11.1248881,22.4321971 11.1258233,22.4321971 11.1267585,22.4321985 Z" id="矩形备份-14" transform="translate(11.217416, 24.604742) rotate(-108.000000) translate(-11.217416, -24.604742) "></path>
                <path d="M4.27193576,24.0361879 L4.45305369,24.0364035 C5.00440624,24.0370601 5.45120282,24.4838545 5.45186212,25.035207 L5.45596405,28.4655141 C5.45662446,29.0177985 5.0094449,29.4660488 4.45716055,29.4667092 C4.456365,29.4667102 4.45556945,29.4667102 4.45477391,29.4667092 L4.27365597,29.4664935 C3.72230343,29.4658369 3.27550684,29.0190426 3.27484754,28.46769 L3.27074562,25.0373829 C3.2700852,24.4850986 3.71726476,24.0368483 4.26954912,24.0361879 C4.27034466,24.0361869 4.27114021,24.0361869 4.27193576,24.0361879 Z" id="矩形备份-13" transform="translate(4.363355, 26.751449) rotate(-105.000000) translate(-4.363355, -26.751449) "></path>
                <path d="M34.8627714,23.6693695 L35.0419793,23.6689995 C35.5942629,23.6678594 36.0429015,24.1146494 36.0440416,24.666933 C36.0440445,24.6683109 36.0440445,24.6696888 36.0440416,24.6710667 L36.0369333,28.1061189 C36.0357937,28.6567888 35.5896698,29.1029106 35.0389998,29.1040474 L34.8597919,29.1044173 C34.3075083,29.1055575 33.8588697,28.6587675 33.8577296,28.1064839 C33.8577268,28.105106 33.8577268,28.103728 33.8577296,28.1023501 L33.864838,24.667298 C33.8659775,24.1166281 34.3121015,23.6705063 34.8627714,23.6693695 Z" id="矩形备份-11" transform="translate(34.950886, 26.386708) rotate(-240.000000) translate(-34.950886, -26.386708) "></path>
            </g>
        </g>
    </g>
</svg>