<?xml version="1.0" encoding="UTF-8"?>
<svg width="66px" height="66px" viewBox="0 0 66 66" version="1.1" xmlns="http://www.w3.org/2000/svg" xmlns:xlink="http://www.w3.org/1999/xlink">
    <title>编组 7备份 9</title>
    <defs>
        <filter id="filter-1">
            <feColorMatrix in="SourceGraphic" type="matrix" values="0 0 0 0 0.258824 0 0 0 0 0.886275 0 0 0 0 1.000000 0 0 0 1.000000 0"></feColorMatrix>
        </filter>
        <filter x="-13.3%" y="-14.1%" width="126.7%" height="128.1%" filterUnits="objectBoundingBox" id="filter-2">
            <feOffset dx="0" dy="0" in="SourceAlpha" result="shadowOffsetOuter1"></feOffset>
            <feGaussianBlur stdDeviation="2" in="shadowOffsetOuter1" result="shadowBlurOuter1"></feGaussianBlur>
            <feColorMatrix values="0 0 0 0 0.258823529   0 0 0 0 0.88627451   0 0 0 0 1  0 0 0 0.5 0" type="matrix" in="shadowBlurOuter1" result="shadowMatrixOuter1"></feColorMatrix>
            <feMerge>
                <feMergeNode in="shadowMatrixOuter1"></feMergeNode>
                <feMergeNode in="SourceGraphic"></feMergeNode>
            </feMerge>
        </filter>
    </defs>
    <g id="页面-1" stroke="none" stroke-width="1" fill="none" fill-rule="evenodd">
        <g id="124" transform="translate(-753.000000, -79.000000)">
            <g id="编组-12备份" transform="translate(753.000000, 79.000000)">
                <g id="编组-5备份" transform="translate(3.000000, 4.000000)" filter="url(#filter-1)">
                    <g filter="url(#filter-2)" transform="translate(0.000000, 0.178571)">
                        <circle id="椭圆形" stroke="#FFFFFF" stroke-width="3" cx="30" cy="28.4210526" r="26.9210526"></circle>
                        <g id="编组" transform="translate(0.000000, 9.473684)" fill="#FFFFFF">
                            <polygon id="路径" points="16.8761033 31.5377574 0 31.5377574 0 27.0912063 15.1088591 27.0912063 20.9774436 19.8555083 27.0127493 28.4132069 31.5142203 23.1565871 34.7486107 27.1461262 60 27.1461262 60 31.5926773 32.6812684 31.5926773 31.3474992 29.2585812 26.8793723 36.02746 20.5439686 27.0029421"></polygon>
                            <polygon id="路径" points="36.3691621 1.42149018 32.0663733 7.25144969 40.2190258 7.25144969 26.9709654 20.310559 31.7832951 11.2158222 26.0084995 11.2158222 30.0848258 1.36319059 36.3691621 1.36319059"></polygon>
                        </g>
                    </g>
                </g>
            </g>
        </g>
    </g>
</svg>