<?xml version="1.0" encoding="UTF-8"?>
<svg width="24px" height="22px" viewBox="0 0 24 22" version="1.1" xmlns="http://www.w3.org/2000/svg" xmlns:xlink="http://www.w3.org/1999/xlink">
    <title>电话</title>
    <g id="页面-1" stroke="none" stroke-width="1" fill="none" fill-rule="evenodd">
        <g id="23备份" transform="translate(-741.000000, -341.000000)" fill-rule="nonzero">
            <g id="电话" transform="translate(741.000000, 341.000000)">
                <path d="M20.1197917,12.6510417 C18.5642448,12.3732552 16.8975781,12.8732552 15.8420052,13.984375 C15.6197917,14.2065885 15.2309115,14.2621615 14.8975781,14.1510417 C11.0086719,12.8732552 8.78645833,10.5954948 7.56424479,8.87325521 C7.28645833,8.484375 7.28645833,7.92882812 7.61979167,7.59549479 C8.23091146,6.984375 8.67533854,6.15104167 8.84200521,5.26216146 C9.06424479,4.09549479 8.84200521,2.92882812 8.17533854,1.92882812 C7.50867187,0.928828125 6.50867187,0.262161458 5.34200521,0.0954947917 C4.17533854,-0.126744792 2.96079628,0.0988046339 2.00867187,0.817708333 C0.738702527,1.77660158 0.175338542,3.93702333 0.175338542,3.93702333 C-0.491328125,7.60368999 0.786458333,11.2621615 3.84200521,14.484375 C6.78645833,17.5954948 11.0642448,19.8177083 15.8420052,20.7065885 C16.953125,20.9288281 18.0642448,21.0399219 19.1753385,21.0954948 L19.453125,21.0954948 C21.7309115,21.0954948 23.5086719,19.7065885 23.8975781,17.6510417 C24.2864583,15.3732552 22.6197917,13.1510417 20.1197917,12.6510417 Z M19.2309115,19.4288281 C18.2309115,19.3732552 17.1753385,19.2621615 16.1197917,19.0399219 C11.6753385,18.2065885 7.73091146,16.1510417 5.00867187,13.3177083 C2.34200521,10.5399219 0.917497495,7.29644222 1.47304437,4.18534847 C1.47304437,4.18534847 1.99813074,2.65742093 2.90795083,2.13042841 C3.54374102,1.76216146 4.28645833,1.65104167 5.00867187,1.76216146 C5.73091146,1.87325521 6.34200521,2.31770833 6.73091146,2.92882813 C7.11979167,3.53992188 7.28645833,4.26216146 7.17533854,5.03992188 C7.06424479,5.59549479 6.78645833,6.09549479 6.39757812,6.484375 C5.50867187,7.37325521 5.453125,8.81770833 6.17533854,9.87325521 C8.11979167,12.5954948 10.953125,14.6510417 14.3420052,15.7621615 C15.3420052,16.0954948 16.3975781,15.8177083 17.0086719,15.1510417 C17.6753385,14.4288281 18.7309115,14.1510417 19.7309115,14.3177083 C21.3975781,14.5954948 22.5086719,15.984375 22.2309115,17.3732552 C22.0086719,18.6510417 20.7864583,19.484375 19.2309115,19.4288281 Z" id="形状" fill="#999999"></path>
                <path d="M5.15107691,5.40121652 C5.15107691,4.97310004 5.08543773,4.47360852 4.77322453,4.18820868 C4.52347152,3.97415044 4.08636718,3.90280884 3.58686117,4.04549204 C3.27464797,4.11686708 2.8550003,3.75616795 2.81808103,3.37727329 C2.79294183,3.11927503 2.95130142,2.77646488 3.27464797,2.61845941 C4.20699162,2.26580017 5.14786867,2.68980101 5.52251281,3.04657589 C6.08447902,3.54603396 6.4313542,4.34347238 6.4313542,5.34242197 C6.4313542,5.79019799 6.14690995,6.11473284 5.83472601,6.11473284 C5.46008187,6.11473284 5.15107691,5.829333 5.15107691,5.40121652 Z" id="形状" fill="#42E2FF"></path>
                <path d="M20.0685779,17.7702861 C20.0685779,17.3421697 20.0029388,16.8426781 19.6907255,16.5572783 C19.4409725,16.3432201 19.0038682,16.2718785 18.5043622,16.4145617 C18.192149,16.4859367 17.7725013,16.1252376 17.735582,15.7463429 C17.7104428,15.4883447 17.8688024,15.1455345 18.192149,14.987529 C19.1244926,14.6348698 20.0653697,15.0588706 20.4400138,15.4156455 C21.00198,15.9151036 21.3488552,16.712542 21.3488552,17.7114916 C21.3488552,18.1592676 21.064411,18.4838025 20.752227,18.4838025 C20.3775829,18.4838025 20.0685779,18.1984026 20.0685779,17.7702861 Z" id="形状备份" fill="#42E2FF" transform="translate(19.540924, 16.669443) rotate(-11.000000) translate(-19.540924, -16.669443) "></path>
            </g>
        </g>
    </g>
</svg>