<?xml version="1.0" encoding="UTF-8"?>
<svg width="54px" height="54px" viewBox="0 0 54 54" version="1.1" xmlns="http://www.w3.org/2000/svg" xmlns:xlink="http://www.w3.org/1999/xlink">
    <title>编组 6备份 8</title>
    <g id="页面-1" stroke="none" stroke-width="1" fill="none" fill-rule="evenodd">
        <g id="125" transform="translate(-831.000000, -710.000000)">
            <g id="编组-6备份-8" transform="translate(831.000000, 710.000000)">
                <circle id="椭圆形备份-10" stroke="#FFFFFF" opacity="0.5" cx="27" cy="27" r="26.5"></circle>
                <path d="M27.004223,11 C35.840779,11 43.004223,18.163444 43.004223,27 C43.004223,35.836556 35.840779,43 27.004223,43 C18.167667,43 11.004223,35.836556 11.004223,27 C11.004223,18.163444 18.167667,11 27.004223,11 Z M23.6700101,18 C22.9735529,18 22.4,18.5778302 22.4,19.2382076 L22.4,34.2617925 C22.4,34.9634434 22.9735529,35.5 23.6700101,35.5 C23.9977546,35.5 24.3254991,35.3761792 24.5303394,35.1698113 L35.3459089,27.6167453 C35.5917173,27.4103774 35.7146215,27.0801887 35.7146215,26.7087264 C35.7555896,26.3785377 35.5917173,26.0483491 35.3459089,25.8007076 L24.5303394,18.3301887 C24.2845311,18.1238208 23.9977546,18 23.6700101,18 Z" id="形状结合" fill="#FFFFFF"></path>
            </g>
        </g>
    </g>
</svg>