<?xml version="1.0" encoding="UTF-8"?>
<svg width="66px" height="66px" viewBox="0 0 66 66" version="1.1" xmlns="http://www.w3.org/2000/svg" xmlns:xlink="http://www.w3.org/1999/xlink">
    <title>编组 7备份 11</title>
    <defs>
        <filter id="filter-1">
            <feColorMatrix in="SourceGraphic" type="matrix" values="0 0 0 0 0.258824 0 0 0 0 0.886275 0 0 0 0 1.000000 0 0 0 1.000000 0"></feColorMatrix>
        </filter>
        <filter x="-14.8%" y="-14.8%" width="129.6%" height="129.6%" filterUnits="objectBoundingBox" id="filter-2">
            <feOffset dx="0" dy="0" in="SourceAlpha" result="shadowOffsetOuter1"></feOffset>
            <feGaussianBlur stdDeviation="2" in="shadowOffsetOuter1" result="shadowBlurOuter1"></feGaussianBlur>
            <feColorMatrix values="0 0 0 0 0.258823529   0 0 0 0 0.88627451   0 0 0 0 1  0 0 0 0.5 0" type="matrix" in="shadowBlurOuter1" result="shadowMatrixOuter1"></feColorMatrix>
            <feMerge>
                <feMergeNode in="shadowMatrixOuter1"></feMergeNode>
                <feMergeNode in="SourceGraphic"></feMergeNode>
            </feMerge>
        </filter>
    </defs>
    <g id="页面-1" stroke="none" stroke-width="1" fill="none" fill-rule="evenodd">
        <g id="124" transform="translate(-1025.000000, -79.000000)">
            <g id="编组-3备份-7" transform="translate(1025.000000, 79.000000)" filter="url(#filter-1)">
                <g filter="url(#filter-2)" transform="translate(6.000000, 6.000000)">
                    <path d="M23.4117647,0 C24.5163342,-2.02906125e-16 25.4117647,0.8954305 25.4117647,2 L25.4117647,23.4117647 C25.4117647,24.5163342 24.5163342,25.4117647 23.4117647,25.4117647 L2,25.4117647 C0.8954305,25.4117647 1.3527075e-16,24.5163342 0,23.4117647 L0,2 C-1.3527075e-16,0.8954305 0.8954305,2.02906125e-16 2,0 L23.4117647,0 Z M19.6470588,4.76470588 L5.76470588,4.76470588 C5.21242113,4.76470588 4.76470588,5.21242113 4.76470588,5.76470588 L4.76470588,5.76470588 L4.76470588,19.6470588 C4.76470588,20.1993436 5.21242113,20.6470588 5.76470588,20.6470588 L5.76470588,20.6470588 L19.6470588,20.6470588 C20.1993436,20.6470588 20.6470588,20.1993436 20.6470588,19.6470588 L20.6470588,19.6470588 L20.6470588,5.76470588 C20.6470588,5.21242113 20.1993436,4.76470588 19.6470588,4.76470588 L19.6470588,4.76470588 Z" id="形状结合" fill="#FFFFFF"></path>
                    <path d="M23.4117647,28.5882353 C24.5163342,28.5882353 25.4117647,29.4836658 25.4117647,30.5882353 L25.4117647,52 C25.4117647,53.1045695 24.5163342,54 23.4117647,54 L2,54 C0.8954305,54 1.3527075e-16,53.1045695 0,52 L0,30.5882353 C-1.3527075e-16,29.4836658 0.8954305,28.5882353 2,28.5882353 L23.4117647,28.5882353 Z M19.6470588,33.3529412 L5.76470588,33.3529412 C5.21242113,33.3529412 4.76470588,33.8006564 4.76470588,34.3529412 L4.76470588,34.3529412 L4.76470588,48.2352941 C4.76470588,48.7875789 5.21242113,49.2352941 5.76470588,49.2352941 L5.76470588,49.2352941 L19.6470588,49.2352941 C20.1993436,49.2352941 20.6470588,48.7875789 20.6470588,48.2352941 L20.6470588,48.2352941 L20.6470588,34.3529412 C20.6470588,33.8006564 20.1993436,33.3529412 19.6470588,33.3529412 L19.6470588,33.3529412 Z" id="形状结合备份-2" fill="#FFFFFF"></path>
                    <path d="M52,0 C53.1045695,-2.02906125e-16 54,0.8954305 54,2 L54,23.4117647 C54,24.5163342 53.1045695,25.4117647 52,25.4117647 L30.5882353,25.4117647 C29.4836658,25.4117647 28.5882353,24.5163342 28.5882353,23.4117647 L28.5882353,2 C28.5882353,0.8954305 29.4836658,2.02906125e-16 30.5882353,0 L52,0 Z M48.2352941,4.76470588 L34.3529412,4.76470588 C33.8006564,4.76470588 33.3529412,5.21242113 33.3529412,5.76470588 L33.3529412,5.76470588 L33.3529412,19.6470588 C33.3529412,20.1993436 33.8006564,20.6470588 34.3529412,20.6470588 L34.3529412,20.6470588 L48.2352941,20.6470588 C48.7875789,20.6470588 49.2352941,20.1993436 49.2352941,19.6470588 L49.2352941,19.6470588 L49.2352941,5.76470588 C49.2352941,5.21242113 48.7875789,4.76470588 48.2352941,4.76470588 L48.2352941,4.76470588 Z" id="形状结合备份" fill="#FFFFFF"></path>
                    <rect id="矩形" fill="#FFFFFF" x="7.94117647" y="7.94117647" width="9.52941176" height="9.52941176" rx="1"></rect>
                    <rect id="矩形备份-3" fill="#FFFFFF" x="7.94117647" y="36.5294118" width="9.52941176" height="9.52941176" rx="1"></rect>
                    <rect id="矩形备份-2" fill="#FFFFFF" x="36.5294118" y="7.94117647" width="9.52941176" height="9.52941176" rx="1"></rect>
                    <rect id="矩形" fill="#FFFFFF" x="28.5882353" y="28.5882353" width="4.76470588" height="7.94117647" rx="1.5"></rect>
                    <rect id="矩形备份-5" fill="#FFFFFF" x="49.2352941" y="28.5882353" width="4.76470588" height="7.94117647" rx="1.5"></rect>
                    <rect id="矩形备份-8" fill="#FFFFFF" x="39.7058824" y="46.0588235" width="4.76470588" height="7.94117647" rx="1.5"></rect>
                    <rect id="矩形备份-4" fill="#FFFFFF" x="28.5882353" y="39.7058824" width="4.76470588" height="14.2941176" rx="1.5"></rect>
                    <rect id="矩形备份-6" fill="#FFFFFF" x="49.2352941" y="39.7058824" width="4.76470588" height="14.2941176" rx="1.5"></rect>
                    <rect id="矩形备份-7" fill="#FFFFFF" x="39.6963567" y="28.5797135" width="4.76470588" height="14.2941176" rx="1.5"></rect>
                </g>
            </g>
        </g>
    </g>
</svg>