<?xml version="1.0" encoding="UTF-8"?>
<svg width="48px" height="48px" viewBox="0 0 48 48" version="1.1" xmlns="http://www.w3.org/2000/svg" xmlns:xlink="http://www.w3.org/1999/xlink">
    <title>编组备份 14</title>
    <defs>
        <filter id="filter-1">
            <feColorMatrix in="SourceGraphic" type="matrix" values="0 0 0 0 0.258824 0 0 0 0 0.886275 0 0 0 0 1.000000 0 0 0 1.000000 0"></feColorMatrix>
        </filter>
        <filter x="-30.9%" y="-30.9%" width="161.8%" height="161.8%" filterUnits="objectBoundingBox" id="filter-2">
            <feOffset dx="0" dy="1" in="SourceAlpha" result="shadowOffsetOuter1"></feOffset>
            <feGaussianBlur stdDeviation="2" in="shadowOffsetOuter1" result="shadowBlurOuter1"></feGaussianBlur>
            <feColorMatrix values="0 0 0 0 0.258823529   0 0 0 0 0.88627451   0 0 0 0 1  0 0 0 0.5 0" type="matrix" in="shadowBlurOuter1" result="shadowMatrixOuter1"></feColorMatrix>
            <feMerge>
                <feMergeNode in="shadowMatrixOuter1"></feMergeNode>
                <feMergeNode in="SourceGraphic"></feMergeNode>
            </feMerge>
        </filter>
    </defs>
    <g id="页面-1" stroke="none" stroke-width="1" fill="none" fill-rule="evenodd">
        <g id="编组-3备份-3" transform="translate(-722.000000, -41.000000)" filter="url(#filter-1)">
            <g filter="url(#filter-2)" transform="translate(729.000000, 48.000000)">
                <path d="M14,0 C15.1045695,-2.02906125e-16 16,0.8954305 16,2 L16,14 C16,15.1045695 15.1045695,16 14,16 L2,16 C0.8954305,16 1.3527075e-16,15.1045695 0,14 L0,2 C-1.3527075e-16,0.8954305 0.8954305,2.02906125e-16 2,0 L14,0 Z M12,3 L4,3 C3.44771525,3 3,3.44771525 3,4 L3,4 L3,12 C3,12.5522847 3.44771525,13 4,13 L4,13 L12,13 C12.5522847,13 13,12.5522847 13,12 L13,12 L13,4 C13,3.44771525 12.5522847,3 12,3 L12,3 Z" id="形状结合" fill="#FFFFFF"></path>
                <path d="M14,18 C15.1045695,18 16,18.8954305 16,20 L16,32 C16,33.1045695 15.1045695,34 14,34 L2,34 C0.8954305,34 1.3527075e-16,33.1045695 0,32 L0,20 C-1.3527075e-16,18.8954305 0.8954305,18 2,18 L14,18 Z M12,21 L4,21 C3.44771525,21 3,21.4477153 3,22 L3,22 L3,30 C3,30.5522847 3.44771525,31 4,31 L4,31 L12,31 C12.5522847,31 13,30.5522847 13,30 L13,30 L13,22 C13,21.4477153 12.5522847,21 12,21 L12,21 Z" id="形状结合备份-2" fill="#FFFFFF"></path>
                <path d="M32,0 C33.1045695,-2.02906125e-16 34,0.8954305 34,2 L34,14 C34,15.1045695 33.1045695,16 32,16 L20,16 C18.8954305,16 18,15.1045695 18,14 L18,2 C18,0.8954305 18.8954305,2.02906125e-16 20,0 L32,0 Z M30,3 L22,3 C21.4477153,3 21,3.44771525 21,4 L21,4 L21,12 C21,12.5522847 21.4477153,13 22,13 L22,13 L30,13 C30.5522847,13 31,12.5522847 31,12 L31,12 L31,4 C31,3.44771525 30.5522847,3 30,3 L30,3 Z" id="形状结合备份" fill="#FFFFFF"></path>
                <rect id="矩形" fill="#FFFFFF" x="5" y="5" width="6" height="6" rx="1"></rect>
                <rect id="矩形备份-3" fill="#FFFFFF" x="5" y="23" width="6" height="6" rx="1"></rect>
                <rect id="矩形备份-2" fill="#FFFFFF" x="23" y="5" width="6" height="6" rx="1"></rect>
                <rect id="矩形" fill="#FFFFFF" x="18" y="18" width="3" height="5" rx="1.5"></rect>
                <rect id="矩形备份-5" fill="#FFFFFF" x="31" y="18" width="3" height="5" rx="1.5"></rect>
                <rect id="矩形备份-8" fill="#FFFFFF" x="25" y="29" width="3" height="5" rx="1.5"></rect>
                <rect id="矩形备份-4" fill="#FFFFFF" x="18" y="25" width="3" height="9" rx="1.5"></rect>
                <rect id="矩形备份-6" fill="#FFFFFF" x="31" y="25" width="3" height="9" rx="1.5"></rect>
                <rect id="矩形备份-7" fill="#FFFFFF" x="24.9940024" y="17.9946344" width="3" height="9" rx="1.5"></rect>
            </g>
        </g>
    </g>
</svg>