<?xml version="1.0" encoding="UTF-8"?>
<svg width="48px" height="48px" viewBox="0 0 48 48" version="1.1" xmlns="http://www.w3.org/2000/svg" xmlns:xlink="http://www.w3.org/1999/xlink">
    <title>编组备份 17</title>
    <defs>
        <filter x="-33.3%" y="-33.3%" width="166.7%" height="166.7%" filterUnits="objectBoundingBox" id="filter-1">
            <feOffset dx="0" dy="0" in="SourceAlpha" result="shadowOffsetOuter1"></feOffset>
            <feGaussianBlur stdDeviation="3" in="shadowOffsetOuter1" result="shadowBlurOuter1"></feGaussianBlur>
            <feColorMatrix values="0 0 0 0 0   0 0 0 0 0   0 0 0 0 0  0 0 0 0.5 0" type="matrix" in="shadowBlurOuter1" result="shadowMatrixOuter1"></feColorMatrix>
            <feMerge>
                <feMergeNode in="shadowMatrixOuter1"></feMergeNode>
                <feMergeNode in="SourceGraphic"></feMergeNode>
            </feMerge>
        </filter>
    </defs>
    <g id="页面-1" stroke="none" stroke-width="1" fill="none" fill-rule="evenodd">
        <g id="9" transform="translate(-481.000000, -113.000000)" fill="#FFFFFF" fill-rule="nonzero">
            <g id="整合备份" filter="url(#filter-1)" transform="translate(488.000000, 119.000000)">
                <path d="M5.47719828,35.0088362 C2.47306034,35.0088362 0.0151293103,32.5509052 0.0151293103,29.5467672 C0.0151293103,26.5426293 2.47306034,24.0846983 5.47719828,24.0846983 C8.48133621,24.0846983 10.9392672,26.5426293 10.9392672,29.5467672 C10.9392672,32.5509052 8.45650862,35.0088362 5.47719828,35.0088362 Z M5.77512931,8.89021552 C3.31719828,8.89021552 1.33099138,6.90400862 1.33099138,4.44607759 C1.33099138,1.98814655 3.31719828,0.00193965517 5.77512931,0.00193965517 C8.23306034,0.00193965517 10.2192672,1.98814655 10.2192672,4.44607759 C10.2192672,6.90400862 8.25788793,8.89021552 5.77512931,8.89021552 Z M30.4289224,29.5467672 C27.3751293,29.5467672 24.8923707,27.0640086 24.8923707,24.0102155 C24.8923707,20.9564224 27.3751293,18.4736638 30.4289224,18.4736638 C33.4827155,18.4736638 35.9654741,20.9564224 35.9654741,24.0102155 C35.9654741,27.0640086 33.4827155,29.5467672 30.4289224,29.5467672 Z M16.6496121,24.283319 C12.875819,24.283319 9.79719828,21.2046983 9.79719828,17.4309052 C9.79719828,13.6571121 12.875819,10.5784914 16.6496121,10.5784914 C20.4234052,10.5784914 23.5020259,13.6571121 23.5020259,17.4309052 C23.5020259,21.2046983 20.4482328,24.283319 16.6496121,24.283319 L16.6496121,24.283319 Z M24.5447845,10.1564224 C22.4096121,10.1564224 20.671681,8.41849138 20.671681,6.28331897 C20.671681,4.14814655 22.4096121,2.41021552 24.5447845,2.41021552 C26.6799569,2.41021552 28.4178879,4.14814655 28.4178879,6.28331897 C28.4178879,8.39366379 26.7047845,10.1564224 24.5447845,10.1564224 Z" id="形状"></path>
                <path d="M9.35030172,26.3936638 C9.15168103,26.3936638 8.95306034,26.319181 8.80409483,26.1702155 C8.50616379,25.8722845 8.48133621,25.3757328 8.77926724,25.0778017 L11.9075431,21.8502155 C12.2054741,21.5522845 12.7020259,21.5274569 12.9999569,21.8253879 C13.2978879,22.123319 13.3227155,22.6198707 13.0247845,22.9178017 L9.89650862,26.1453879 C9.7475431,26.319181 9.57375,26.3936638 9.35030172,26.3936638 L9.35030172,26.3936638 Z M20.3985776,12.3660776 C20.1999569,12.3909052 20.0013362,12.3164224 19.8275431,12.1922845 C19.5047845,11.919181 19.4551293,11.4226293 19.7282328,11.0998707 L22.53375,7.72331897 C22.8068534,7.40056034 23.3034052,7.35090517 23.6261638,7.62400862 C23.9489224,7.89711207 23.9985776,8.39366379 23.7254741,8.71642241 L20.9199569,12.0929741 C20.7709914,12.2667672 20.5971983,12.34125 20.3985776,12.3660776 L20.3985776,12.3660776 Z M13.7944397,15.6929741 C13.6703017,15.7426293 13.471681,15.643319 13.2234052,15.3453879 L7.66202586,8.61711207 C7.16547414,8.02125 6.64409483,6.87918103 6.54478448,6.10952586 C6.42064655,5.33987069 6.74340517,5.19090517 7.2399569,5.81159483 L12.8013362,12.5398707 C13.2978879,13.1357328 13.8192672,14.2778017 13.9185776,15.0474569 C13.9930603,15.4198707 13.9185776,15.643319 13.7944397,15.6929741 Z M26.13375,23.7122845 C25.9351293,23.7619397 25.7365086,23.7371121 25.5627155,23.6129741 L21.2923707,21.0060776 C20.9447845,20.7826293 20.8206466,20.3109052 21.0440948,19.9384914 C21.2675431,19.5909052 21.7392672,19.4667672 22.111681,19.6902155 L26.3571983,22.2971121 C26.7047845,22.5205603 26.8289224,22.9922845 26.6054741,23.3646983 C26.4565086,23.5136638 26.3075431,23.6626293 26.13375,23.7122845 L26.13375,23.7122845 Z" id="形状"></path>
            </g>
        </g>
    </g>
</svg>