<?xml version="1.0" encoding="UTF-8"?>
<svg width="66px" height="66px" viewBox="0 0 66 66" version="1.1" xmlns="http://www.w3.org/2000/svg" xmlns:xlink="http://www.w3.org/1999/xlink">
    <title>编组 7备份 8</title>
    <defs>
        <filter id="filter-1">
            <feColorMatrix in="SourceGraphic" type="matrix" values="0 0 0 0 0.258824 0 0 0 0 0.886275 0 0 0 0 1.000000 0 0 0 1.000000 0"></feColorMatrix>
        </filter>
        <filter x="-13.6%" y="-14.1%" width="127.3%" height="128.6%" filterUnits="objectBoundingBox" id="filter-2">
            <feOffset dx="0" dy="0" in="SourceAlpha" result="shadowOffsetOuter1"></feOffset>
            <feGaussianBlur stdDeviation="2" in="shadowOffsetOuter1" result="shadowBlurOuter1"></feGaussianBlur>
            <feColorMatrix values="0 0 0 0 0.258823529   0 0 0 0 0.88627451   0 0 0 0 1  0 0 0 0.5 0" type="matrix" in="shadowBlurOuter1" result="shadowMatrixOuter1"></feColorMatrix>
            <feMerge>
                <feMergeNode in="shadowMatrixOuter1"></feMergeNode>
                <feMergeNode in="SourceGraphic"></feMergeNode>
            </feMerge>
        </filter>
    </defs>
    <g id="页面-1" stroke="none" stroke-width="1" fill="none" fill-rule="evenodd">
        <g id="124" transform="translate(-617.000000, -79.000000)">
            <g id="编组-11备份" transform="translate(617.000000, 79.000000)">
                <g id="整合备份" transform="translate(4.000000, 5.000000)" filter="url(#filter-1)">
                    <g filter="url(#filter-2)" transform="translate(0.547112, 0.182371)">
                        <path d="M8.87894351,56.7519128 C4.00901373,56.7519128 0.0245257311,52.7674248 0.0245257311,47.897495 C0.0245257311,43.0275652 4.00901373,39.0430772 8.87894351,39.0430772 C13.7488733,39.0430772 17.7333613,43.0275652 17.7333613,47.897495 C17.7333613,52.7674248 13.7086259,56.7519128 8.87894351,56.7519128 Z M9.36191175,14.4116969 C5.37742375,14.4116969 2.15763547,11.1919086 2.15763547,7.20742061 C2.15763547,3.22293261 5.37742375,0.00314432449 9.36191175,0.00314432449 C13.3463997,0.00314432449 16.566188,3.22293261 16.566188,7.20742061 C16.566188,11.1919086 13.3866471,14.4116969 9.36191175,14.4116969 Z M49.3275338,47.897495 C44.3771093,47.897495 40.352374,43.8727597 40.352374,38.9223352 C40.352374,33.9719107 44.3771093,29.9471753 49.3275338,29.9471753 C54.2779583,29.9471753 58.3026936,33.9719107 58.3026936,38.9223352 C58.3026936,43.8727597 54.2779583,47.897495 49.3275338,47.897495 Z M26.9902526,39.3650561 C20.8726549,39.3650561 15.881983,34.3743842 15.881983,28.2567865 C15.881983,22.1391888 20.8726549,17.1485169 26.9902526,17.1485169 C33.1078503,17.1485169 38.0985222,22.1391888 38.0985222,28.2567865 C38.0985222,34.3743842 33.1480977,39.3650561 26.9902526,39.3650561 L26.9902526,39.3650561 Z M39.788911,16.4643119 C36.3276386,16.4643119 33.5103239,13.6469972 33.5103239,10.1857248 C33.5103239,6.72445236 36.3276386,3.90713762 39.788911,3.90713762 C43.2501834,3.90713762 46.0674982,6.72445236 46.0674982,10.1857248 C46.0674982,13.6067498 43.2904308,16.4643119 39.788911,16.4643119 Z" id="形状" fill="#FFFFFF" fill-rule="nonzero"></path>
                        <path d="M15.1575307,42.7860811 C14.8355518,42.7860811 14.513573,42.6653391 14.2720889,42.4238549 C13.7891206,41.9408867 13.7488733,41.1359396 14.2318415,40.6529714 L19.3030081,35.4208154 C19.7859763,34.9378472 20.5909234,34.8975998 21.0738916,35.3805681 C21.5568599,35.8635363 21.5971072,36.6684834 21.114139,37.1514516 L16.0429724,42.3836076 C15.8014883,42.6653391 15.5197568,42.7860811 15.1575307,42.7860811 L15.1575307,42.7860811 Z M33.067603,20.0463264 C32.7456241,20.0865737 32.4236453,19.9658317 32.1419138,19.7645949 C31.6186982,19.321874 31.5382035,18.5169269 31.9809244,17.9937114 L36.5288754,12.5200713 C36.9715963,11.9968557 37.7765433,11.916361 38.2997589,12.3590819 C38.8229745,12.8018027 38.9034692,13.6067498 38.4607483,14.1299654 L33.9127974,19.6036055 C33.6713133,19.885337 33.3895818,20.006079 33.067603,20.0463264 L33.067603,20.0463264 Z M22.3618069,25.4394718 C22.1605702,25.5199665 21.8385913,25.358977 21.4361178,24.8760088 L12.4207106,13.968976 C11.6157635,13.0030395 10.7705691,11.1516613 10.6095797,9.90399329 C10.4083429,8.65632533 10.9315585,8.41484121 11.7365056,9.42102505 L20.7519128,20.3280579 C21.5568599,21.2939943 22.4020543,23.1453726 22.5630437,24.3930406 C22.6837858,24.9967509 22.5630437,25.358977 22.3618069,25.4394718 Z M42.3647416,38.4393669 C42.0427628,38.5198616 41.720784,38.4796143 41.4390525,38.2783775 L34.5165077,34.0524054 C33.9530448,33.6901792 33.751808,32.9254795 34.1140342,32.3217692 C34.4762604,31.7583063 35.2409601,31.5570695 35.8446704,31.9192957 L42.7269678,36.1452678 C43.2904308,36.507494 43.4916675,37.2721937 43.1294414,37.875904 C42.8879572,38.1173881 42.6464731,38.3588722 42.3647416,38.4393669 L42.3647416,38.4393669 Z" id="形状" fill="#FFFFFF" fill-rule="nonzero"></path>
                    </g>
                </g>
            </g>
        </g>
    </g>
</svg>