<?xml version="1.0" encoding="UTF-8"?>
<svg width="66px" height="66px" viewBox="0 0 66 66" version="1.1" xmlns="http://www.w3.org/2000/svg" xmlns:xlink="http://www.w3.org/1999/xlink">
    <title>编组 7备份 6</title>
    <defs>
        <filter id="filter-1">
            <feColorMatrix in="SourceGraphic" type="matrix" values="0 0 0 0 0.258824 0 0 0 0 0.886275 0 0 0 0 1.000000 0 0 0 1.000000 0"></feColorMatrix>
        </filter>
        <filter x="-13.3%" y="-13.3%" width="126.7%" height="126.7%" filterUnits="objectBoundingBox" id="filter-2">
            <feOffset dx="0" dy="0" in="SourceAlpha" result="shadowOffsetOuter1"></feOffset>
            <feGaussianBlur stdDeviation="2" in="shadowOffsetOuter1" result="shadowBlurOuter1"></feGaussianBlur>
            <feColorMatrix values="0 0 0 0 0.258823529   0 0 0 0 0.88627451   0 0 0 0 1  0 0 0 0.5 0" type="matrix" in="shadowBlurOuter1" result="shadowMatrixOuter1"></feColorMatrix>
            <feMerge>
                <feMergeNode in="shadowMatrixOuter1"></feMergeNode>
                <feMergeNode in="SourceGraphic"></feMergeNode>
            </feMerge>
        </filter>
    </defs>
    <g id="页面-1" stroke="none" stroke-width="1" fill="none" fill-rule="evenodd">
        <g id="124" transform="translate(-345.000000, -79.000000)">
            <g id="编组-9备份" transform="translate(345.000000, 79.000000)">
                <g id="编组-6备份" transform="translate(3.000000, 3.000000)" filter="url(#filter-1)">
                    <g filter="url(#filter-2)">
                        <g id="切换" transform="translate(32.393023, 51.000000) scale(-1, 1) translate(-32.393023, -51.000000) translate(25.643023, 42.000000)" fill="#000000" fill-rule="nonzero">
                            <path d="M9.74185224,10.5 L12.5248627,13.2326609 C12.895117,13.5930041 13.0802442,14.0399872 13.0802442,14.5795175 C13.0946493,15.0827624 12.8936796,15.5694218 12.5248627,15.924405 L11.650086,16.7711131 C11.2961278,17.123821 10.8072027,17.3191026 10.2992681,17.3106434 C9.7913335,17.3191026 9.30240833,17.123821 8.94845015,16.7711131 L1.71568397,10.3074748 C1.35203136,9.96453749 1.15103078,9.49134346 1.16030251,9 C1.16030251,8.48803698 1.34542968,8.05286838 1.71568397,7.69252517 L8.94845015,1.34876568 C9.30275595,0.996781426 9.79163647,0.802230269 10.2992681,0.811204498 C10.8282028,0.811204498 11.2798317,0.990391572 11.650086,1.34876568 L12.5248627,2.19547378 C12.895117,2.55384789 13.0802442,3.00280011 13.0802442,3.54233039 C13.0946493,4.04557527 12.8936796,4.53223469 12.5248627,4.8872179 L9.74185224,7.34857864 L9.74185224,10.5 Z" id="形状"></path>
                        </g>
                        <path d="M49.8216097,13.675172 C55.2415893,17.1266736 58.6430229,22.1000031 58.6430229,27.6286042 C58.6430229,36.5038766 49.8771557,43.9481535 38.0666096,45.9626641 L35.7266066,43.4724747 C47.0363085,42.1739387 55.6430229,35.5745075 55.6430229,27.6286042 C55.6430229,23.6172559 53.4495536,19.9490637 49.8221845,17.1328008 L49.8216097,13.675172 Z M13.7438621,13.4996868 L13.743321,16.9196405 C9.94945366,19.7627488 7.64302292,23.5152624 7.64302292,27.6286042 C7.64302292,33.6304974 12.5535416,38.8641675 19.8303205,41.6254243 L23.4836064,45.6229667 C12.5601133,43.2054677 4.64302292,36.0632539 4.64302292,27.6286042 C4.64302292,22.0055926 8.16161936,16.9569789 13.7438621,13.4996868 Z" id="形状结合" fill="#D8D8D8"></path>
                        <path d="M31.7828771,3.34843264e-13 L49.8218176,10.298155 L49.8218176,31.4750347 L31.6430229,41.4855 L13.7439367,31.4750347 L13.7439367,10.298155 L31.7828771,3.34843264e-13 Z M46.9313979,13.662 L32.9892729,21.36375 L32.9892729,37.557 L46.9313979,29.9512364 L46.9313979,13.662 Z M31.6430229,2.723625 L16.4892729,11.00925 L31.6430229,19.27125 L46.7258979,11.00925 L31.6430229,2.723625 Z" id="形状结合" fill="#000000"></path>
                        <path d="M25.6430229,49.5 C27.1760981,49.5 28.6793304,49.372227 30.1426514,49.1267493 L30.1428704,52.1647717 C28.6750481,52.3855584 27.1724001,52.5 25.6430229,52.5 C14.7793309,52.5 5.26433012,46.725566 -0.00010026201,38.0785769 L2.59865576,36.5771385 C7.34362832,44.3281169 15.8893466,49.5 25.6430229,49.5 Z" id="形状结合" fill="#333333"></path>
                    </g>
                </g>
            </g>
        </g>
    </g>
</svg>