<?xml version="1.0" encoding="UTF-8"?>
<svg width="48px" height="48px" viewBox="0 0 48 48" version="1.1" xmlns="http://www.w3.org/2000/svg" xmlns:xlink="http://www.w3.org/1999/xlink">
    <title>编组备份 9</title>
    <defs>
        <filter id="filter-1">
            <feColorMatrix in="SourceGraphic" type="matrix" values="0 0 0 0 0.258824 0 0 0 0 0.886275 0 0 0 0 1.000000 0 0 0 1.000000 0"></feColorMatrix>
        </filter>
        <filter x="-26.2%" y="-26.2%" width="152.5%" height="152.5%" filterUnits="objectBoundingBox" id="filter-2">
            <feOffset dx="0" dy="1" in="SourceAlpha" result="shadowOffsetOuter1"></feOffset>
            <feGaussianBlur stdDeviation="2" in="shadowOffsetOuter1" result="shadowBlurOuter1"></feGaussianBlur>
            <feColorMatrix values="0 0 0 0 0.258823529   0 0 0 0 0.88627451   0 0 0 0 1  0 0 0 0.5 0" type="matrix" in="shadowBlurOuter1" result="shadowMatrixOuter1"></feColorMatrix>
            <feMerge>
                <feMergeNode in="shadowMatrixOuter1"></feMergeNode>
                <feMergeNode in="SourceGraphic"></feMergeNode>
            </feMerge>
        </filter>
    </defs>
    <g id="页面-1" stroke="none" stroke-width="1" fill="none" fill-rule="evenodd">
        <g id="编组-6备份-2" transform="translate(-322.000000, -41.000000)" filter="url(#filter-1)">
            <g filter="url(#filter-2)" transform="translate(326.000000, 45.000000)">
                <g id="切换" transform="translate(21.595349, 34.000000) scale(-1, 1) translate(-21.595349, -34.000000) translate(17.095349, 28.000000)" fill="#000000" fill-rule="nonzero">
                    <path d="M6.49456816,7 L8.34990846,8.82177393 C8.59674466,9.06200273 8.72016277,9.35999148 8.72016277,9.71967833 C8.72976618,10.0551749 8.59578638,10.3796145 8.34990846,10.61627 L7.76672401,11.1807421 C7.53075189,11.4158807 7.20480178,11.5460684 6.86617872,11.5404289 C6.52755566,11.5460684 6.20160555,11.4158807 5.96563344,11.1807421 L1.14378932,6.87164989 C0.901354237,6.64302499 0.767353854,6.32756231 0.773535006,6 C0.773535006,5.65869132 0.896953118,5.36857892 1.14378932,5.12835011 L5.96563344,0.899177121 C6.2018373,0.664520951 6.52775765,0.534820179 6.86617872,0.540802999 C7.21880187,0.540802999 7.51988781,0.660261048 7.76672401,0.899177121 L8.34990846,1.46364919 C8.59674466,1.70256526 8.72016277,2.00186674 8.72016277,2.36155359 C8.72976618,2.69705018 8.59578638,3.02148979 8.34990846,3.25814526 L6.49456816,4.89905243 L6.49456816,7 Z" id="形状"></path>
                </g>
                <path d="M33.2151174,9.11723409 C36.8280236,11.4182173 39.0953486,14.7335772 39.0953486,18.4190694 C39.0953486,24.3359418 33.2513896,29.2988093 25.3776437,30.6417924 L23.8170502,28.9817288 C31.3571902,28.1162266 37.0953486,23.7164994 37.0953486,18.4190694 C37.0953486,15.7449544 35.6331639,13.29959 33.2151074,11.4221139 L33.2151174,9.11723409 Z M9.16263491,8.99975396 L9.16229938,11.2796963 C6.63300371,13.1751096 5.09534861,15.6768108 5.09534861,18.4190694 C5.09534861,22.4204408 8.36920644,25.9096355 13.2206109,27.7504336 L15.6554183,30.4152405 C8.37325459,28.803506 3.09534861,24.0420871 3.09534861,18.4190694 C3.09534861,14.6703748 5.44110485,11.3046163 9.16263491,8.99975396 Z" id="形状结合" fill="#D8D8D8"></path>
                <path d="M21.1885848,2.23820962e-13 L33.214545,6.86543669 L33.214545,20.9833565 L21.0953486,27.657 L9.16262449,20.9833565 L9.16262449,6.86543669 L21.1885848,2.23820962e-13 Z M31.2875986,9.108 L21.9928486,14.2425 L21.9928486,25.038 L31.2875986,19.9674909 L31.2875986,9.108 Z M21.0953486,1.81575 L10.9928486,7.3395 L21.0953486,12.8475 L31.1505986,7.3395 L21.0953486,1.81575 Z" id="形状结合" fill="#000000"></path>
                <path d="M17.0953486,33 C18.1177745,33 19.1202904,32.9147554 20.0961769,32.7509857 L20.0962653,34.7763613 C19.1173938,34.9236527 18.1152871,35 17.0953486,35 C9.85293321,35 3.50963395,31.1504262 -3.99680289e-14,25.3858277 L1.73218168,24.3843416 C4.89544544,29.5518923 10.5927227,33 17.0953486,33 Z" id="形状结合" fill="#333333"></path>
            </g>
        </g>
    </g>
</svg>