<?xml version="1.0" encoding="UTF-8"?>
<svg width="66px" height="66px" viewBox="0 0 66 66" version="1.1" xmlns="http://www.w3.org/2000/svg" xmlns:xlink="http://www.w3.org/1999/xlink">
    <title>编组 7备份 5</title>
    <defs>
        <filter x="-14.3%" y="-14.3%" width="128.6%" height="128.6%" filterUnits="objectBoundingBox" id="filter-1">
            <feOffset dx="0" dy="0" in="SourceAlpha" result="shadowOffsetOuter1"></feOffset>
            <feGaussianBlur stdDeviation="2" in="shadowOffsetOuter1" result="shadowBlurOuter1"></feGaussianBlur>
            <feColorMatrix values="0 0 0 0 1   0 0 0 0 1   0 0 0 0 1  0 0 0 0.5 0" type="matrix" in="shadowBlurOuter1" result="shadowMatrixOuter1"></feColorMatrix>
            <feMerge>
                <feMergeNode in="shadowMatrixOuter1"></feMergeNode>
                <feMergeNode in="SourceGraphic"></feMergeNode>
            </feMerge>
        </filter>
    </defs>
    <g id="页面-1" stroke="none" stroke-width="1" fill="none" fill-rule="evenodd">
        <g id="124" transform="translate(-209.000000, -216.000000)" fill="#FFFFFF" fill-rule="nonzero">
            <g id="编组-8" transform="translate(209.000000, 216.000000)">
                <g id="轮毂备份-2" transform="translate(5.000000, 5.000000)" filter="url(#filter-1)">
                    <path d="M27.9255319,55.8510638 C12.5026679,55.8510638 0,43.3483959 0,27.9255319 C0,12.5026679 12.5026679,0 27.9255319,0 C43.3483959,0 55.8510638,12.5026679 55.8510638,27.9255319 C55.8510638,43.3483959 43.3483959,55.8510638 27.9255319,55.8510638 Z M19.5574717,21.1349734 C19.9744976,21.2777157 20.4149198,21.3396177 20.8551363,21.317362 C22.7672207,21.2206699 24.2389545,19.5922623 24.1422041,17.6801197 L23.5832862,6.62568152 C23.5754698,6.47116377 23.5470004,6.31838811 23.498637,6.1714262 C23.1993684,5.26210106 22.2196476,4.76758644 21.3103225,5.06685505 C18.5681516,5.96931516 16.1056433,7.24295213 13.9228557,8.88782414 C11.74001,10.5326961 9.8368268,12.5488032 8.21342254,14.9360871 C8.12639323,15.064049 8.05689253,15.2030895 8.0067736,15.3495013 C7.6968002,16.2552194 8.17967919,17.2406998 9.08539727,17.5507314 L19.5574717,21.1350316 L19.5574717,21.1349734 Z M31.8381898,17.5269947 C31.827244,17.9862616 31.9076923,18.4431238 32.0748587,18.8710273 C32.7715426,20.6543634 34.7820063,21.5352394 36.5652842,20.8384973 L46.890517,16.8046543 C47.0275462,16.7511115 47.1572011,16.6803409 47.2763547,16.5940492 C48.0516955,16.0326297 48.2251247,14.9490027 47.6636469,14.1736037 C45.9788647,11.8468833 44.0239029,9.90547706 41.7988198,8.34938497 C39.5723404,6.79230386 37.0753906,5.62106051 34.3079704,4.83553856 C34.1673139,4.79560863 34.0221701,4.7736367 33.8759973,4.77014628 C32.9189661,4.74734043 32.1246592,5.50470412 32.1018534,6.46167719 L31.8381898,17.5269947 L31.8381898,17.5269947 Z M39.0966755,28.2375997 C38.6589864,28.3691303 38.2516254,28.5859097 37.8980303,28.8754654 C36.4168135,30.0884807 36.1993434,32.2726646 37.4123587,33.7538813 L44.421609,42.3130568 C44.5147162,42.4267635 44.6219065,42.5281671 44.7406001,42.6148271 C45.5137882,43.1792719 46.5981134,43.0100898 47.1625582,42.2369016 C48.8604305,39.911112 50.10812,37.4481965 50.905743,34.8480967 C51.7026097,32.2504405 52.0502244,29.515891 51.9485871,26.64439 C51.9433317,26.4960645 51.9190473,26.3490282 51.8763298,26.20689 C51.6007979,25.2900598 50.6342254,24.7702377 49.7174535,25.0457696 L39.0966755,28.2375997 L39.0966755,28.2375997 Z M31.1555851,38.4689328 C30.895518,38.0931183 30.5637055,37.7724374 30.1792387,37.5253408 C28.5685755,36.4902926 26.4238364,36.9568816 25.3887301,38.5674867 L19.393002,47.897116 C19.3127558,48.0219663 19.2488772,48.1566061 19.2029338,48.2977311 C18.9066905,49.2080452 19.4044631,50.186137 20.3147191,50.4823803 C23.0468251,51.371634 25.7712517,51.7912151 28.4878823,51.74124 C31.207131,51.6912068 33.918642,51.1706865 36.6224152,50.179621 C36.760409,50.129051 36.8914107,50.0611358 37.0122673,49.97751 C37.7994182,49.4327294 37.9959441,48.3530003 37.4512217,47.5658494 L31.1555851,38.4689328 Z M18.9738281,34.0949801 C19.2524834,33.7297302 19.4557597,33.3127357 19.5718418,32.8682347 C20.0555352,31.0157829 18.9459608,29.1219664 17.093509,28.6382148 L6.38418384,25.8417055 C6.24271707,25.8047542 6.0971433,25.7858513 5.95093085,25.7854408 C4.99366689,25.7828873 4.2154754,26.5568318 4.21281474,27.5140957 C4.20517786,30.3907164 4.64285239,33.1137467 5.52582281,35.6830701 C6.40838597,38.2509392 7.73572141,40.6653341 9.50800366,42.9263132 C9.59875041,43.0421084 9.70387022,43.1458793 9.82082779,43.235123 C10.5819149,43.8157414 11.6696144,43.6694232 12.2502327,42.9083361 L18.9738281,34.0949801 L18.9738281,34.0949801 Z M28.2195063,22.9283162 C29.1935838,22.9283162 29.9831782,22.1386636 29.9831782,21.1645861 C29.9831782,20.1905668 29.1935838,19.4009142 28.2195063,19.4009142 C27.2454289,19.4009142 26.4557763,20.1905668 26.4557763,21.1645861 C26.4557763,22.1386636 27.2454289,22.9283162 28.2195063,22.9283162 Z M33.2516872,26.5844082 C33.5527011,27.5108378 34.5476646,28.0178025 35.4740941,27.7167886 C36.4004654,27.4157746 36.9074884,26.4208112 36.6064744,25.4943816 C36.3054604,24.5680103 35.3104388,24.0609874 34.3840675,24.3620013 C33.457638,24.6630153 32.9506732,25.6580369 33.2516872,26.5844082 Z M31.3295379,32.5001413 C30.5415143,33.0726147 30.3668052,34.1756732 30.9393368,34.9636968 C31.5119265,35.7517204 32.6148687,35.9264295 33.4029505,35.3538979 C34.1909741,34.7813082 34.3656832,33.678366 33.7930934,32.8902842 C33.22062,32.1022606 32.1175615,31.9275515 31.3295379,32.5001413 Z M25.1094166,32.5001413 C24.321393,31.9275515 23.2183926,32.1022606 22.645861,32.8902842 C22.0733295,33.678366 22.2479804,34.7813082 23.0360622,35.3538979 C23.8240858,35.9263713 24.9270861,35.7517204 25.4996177,34.9636968 C26.0721493,34.175615 25.8974402,33.0726729 25.1094166,32.5001413 L25.1094166,32.5001413 Z M23.1873255,26.5844082 C23.4882813,25.6580369 22.9813747,24.6630153 22.0549451,24.3620013 C21.1285156,24.0609874 20.133494,24.5679521 19.8325382,25.4943816 C19.5315243,26.4208112 20.038489,27.4157746 20.9648604,27.7167886 C21.8912899,28.0178025 22.8863115,27.5108378 23.1872673,26.5844082 L23.1873255,26.5844082 Z" id="形状"></path>
                </g>
            </g>
        </g>
    </g>
</svg>