<?xml version="1.0" encoding="UTF-8"?>
<svg width="48px" height="48px" viewBox="0 0 48 48" version="1.1" xmlns="http://www.w3.org/2000/svg" xmlns:xlink="http://www.w3.org/1999/xlink">
    <title>编组备份 7</title>
    <defs>
        <filter x="-31.6%" y="-31.6%" width="163.2%" height="163.2%" filterUnits="objectBoundingBox" id="filter-1">
            <feOffset dx="0" dy="0" in="SourceAlpha" result="shadowOffsetOuter1"></feOffset>
            <feGaussianBlur stdDeviation="3" in="shadowOffsetOuter1" result="shadowBlurOuter1"></feGaussianBlur>
            <feColorMatrix values="0 0 0 0 0   0 0 0 0 0   0 0 0 0 0  0 0 0 0.5 0" type="matrix" in="shadowBlurOuter1" result="shadowMatrixOuter1"></feColorMatrix>
            <feMerge>
                <feMergeNode in="shadowMatrixOuter1"></feMergeNode>
                <feMergeNode in="SourceGraphic"></feMergeNode>
            </feMerge>
        </filter>
    </defs>
    <g id="页面-1" stroke="none" stroke-width="1" fill="none" fill-rule="evenodd">
        <g id="9" transform="translate(-242.000000, -113.000000)" fill="#FFFFFF" fill-rule="nonzero">
            <g id="轮毂备份-2" filter="url(#filter-1)" transform="translate(247.000000, 118.000000)">
                <path d="M18.9494681,37.8989362 C8.48395321,37.8989362 0,29.414983 0,18.9494681 C0,8.48395321 8.48395321,0 18.9494681,0 C29.414983,0 37.8989362,8.48395321 37.8989362,18.9494681 C37.8989362,29.414983 29.414983,37.8989362 18.9494681,37.8989362 Z M13.2711415,14.3415891 C13.5541234,14.43845 13.8529813,14.4804549 14.1516996,14.4653528 C15.4491855,14.3997403 16.447862,13.2947494 16.3822099,11.9972241 L16.0029442,4.49599817 C15.9976402,4.39114684 15.9783217,4.28747765 15.9455037,4.18775349 C15.7424285,3.57071144 15.077618,3.23514794 14.460576,3.43822307 C12.5998172,4.05060672 10.9288294,4.91486037 9.44765209,6.03102352 C7.96643534,7.14718667 6.67498961,8.51525931 5.57339387,10.135202 C5.51433826,10.2220332 5.46717707,10.3163821 5.4331678,10.415733 C5.22282871,11.0303275 5.55049659,11.6990463 6.16509101,11.9094249 L13.2711415,14.3416286 L13.2711415,14.3415891 Z M21.604486,11.8933178 C21.5970584,12.2049633 21.6516483,12.5149769 21.7650827,12.8053399 C22.2378324,14.0154609 23.6020757,14.6131981 24.8121572,14.1404089 L31.8185651,11.4031582 C31.9115492,11.3668257 31.9995293,11.3188027 32.0803836,11.2602477 C32.6065076,10.8792844 32.7241917,10.1439661 32.343189,9.61780253 C31.1999439,8.03895653 29.8733627,6.72157372 28.3634849,5.66565409 C26.8526596,4.60906333 25.1583008,3.81429106 23.2804085,3.28125831 C23.184963,3.254163 23.0864726,3.23925348 22.9872839,3.23688497 C22.3378698,3.22140957 21.7988759,3.73533494 21.7834005,4.38470952 L21.604486,11.8933178 L21.604486,11.8933178 Z M26.529887,19.1612284 C26.2328836,19.2504813 25.9564601,19.3975816 25.7165205,19.5940658 C24.7114092,20.4171833 24.5638402,21.8993081 25.3869577,22.9044195 L30.1432347,28.7124314 C30.2064145,28.7895895 30.2791508,28.8583991 30.3596929,28.9172041 C30.8843563,29.3002202 31.6201484,29.1854181 32.0031645,28.6607547 C33.1552921,27.0825403 34.0019386,25.4112762 34.5431828,23.6469228 C35.0839137,21.8842275 35.3197951,20.0286403 35.250827,18.0801218 C35.2472608,17.9794723 35.2307821,17.8796977 35.2017952,17.7832468 C35.0148271,17.161112 34.3589387,16.8083756 33.7368434,16.9953437 L26.529887,19.1612284 L26.529887,19.1612284 Z M21.1412899,26.1039187 C20.9648158,25.8489017 20.7396573,25.6312968 20.4787691,25.4636241 C19.3858191,24.7612699 17.9304604,25.077884 17.2280668,26.1707945 L13.1595371,32.5016144 C13.1050843,32.5863343 13.0617381,32.677697 13.0305623,32.7734604 C12.82954,33.3911735 13.1673142,34.0548787 13.7849879,34.2559009 C15.6389171,34.8593231 17.4876351,35.1440388 19.331063,35.1101272 C21.1762675,35.076176 23.0162213,34.7229658 24.8509246,34.0504571 C24.9445632,34.0161418 25.0334573,33.9700564 25.1154671,33.9133103 C25.6496052,33.5436378 25.7829621,32.8109645 25.413329,32.2768264 L21.1412899,26.1039187 Z M12.8750977,23.1358793 C13.0641851,22.8880312 13.2021227,22.6050707 13.2808926,22.303445 C13.6091132,21.0464241 12.8561877,19.7613344 11.5991668,19.4330743 L4.33212475,17.535443 C4.23612944,17.5103689 4.13734724,17.4975419 4.03813165,17.4972634 C3.38855967,17.4955307 2.86050116,18.0207073 2.85869572,18.6702793 C2.85351355,20.6222719 3.15050698,22.4700424 3.74966548,24.2135119 C4.34854762,25.9559944 5.24923953,27.5943339 6.45185962,29.1285696 C6.51343778,29.207145 6.58476908,29.2775609 6.66413314,29.3381192 C7.18058511,29.7321102 7.91866689,29.6328229 8.31265791,29.1163709 L12.8750977,23.1358793 L12.8750977,23.1358793 Z M19.1489507,15.5585002 C19.8099318,15.5585002 20.3457281,15.0226646 20.3457281,14.3616834 C20.3457281,13.7007418 19.8099318,13.1649061 19.1489507,13.1649061 C18.4879696,13.1649061 17.9521339,13.7007418 17.9521339,14.3616834 C17.9521339,15.0226646 18.4879696,15.5585002 19.1489507,15.5585002 Z M22.5636449,18.0394199 C22.7679043,18.6680685 23.4430581,19.0120803 24.0717067,18.8078208 C24.7003158,18.6035613 25.0443671,17.9284076 24.8401076,17.299759 C24.6358482,16.6711499 23.9606549,16.3270986 23.3320458,16.531358 C22.7033972,16.7356175 22.3593854,17.4108108 22.5636449,18.0394199 Z M21.2593293,22.0536673 C20.724599,22.4421314 20.6060464,23.1906354 20.99455,23.7253657 C21.383093,24.260096 22.131518,24.3786486 22.6662878,23.990145 C23.2010181,23.601602 23.3195707,22.8531769 22.9310277,22.3184072 C22.5425636,21.7836769 21.7940596,21.6651243 21.2593293,22.0536673 Z M17.0385327,22.0536673 C16.5038024,21.6651243 15.7553378,21.7836769 15.3668343,22.3184072 C14.9783307,22.8531769 15.0968438,23.601602 15.6316136,23.990145 C16.1663439,24.3786091 16.9148084,24.260096 17.303312,23.7253657 C17.6918156,23.1905959 17.573263,22.4421709 17.0385327,22.0536673 L17.0385327,22.0536673 Z M15.7342566,18.0394199 C15.9384766,17.4108108 15.5945042,16.7356175 14.9658556,16.531358 C14.337207,16.3270986 13.6620138,16.6711104 13.4577938,17.299759 C13.2535343,17.9284076 13.5975461,18.6035613 14.2261553,18.8078208 C14.8548039,19.0120803 15.5299971,18.6680685 15.7342171,18.0394199 L15.7342566,18.0394199 Z" id="形状"></path>
            </g>
        </g>
    </g>
</svg>