<?xml version="1.0" encoding="UTF-8"?>
<svg width="44px" height="44px" viewBox="0 0 44 44" version="1.1" xmlns="http://www.w3.org/2000/svg" xmlns:xlink="http://www.w3.org/1999/xlink">
    <title>编组 5</title>
    <g id="页面-1" stroke="none" stroke-width="1" fill="none" fill-rule="evenodd">
        <g id="9" transform="translate(-40.000000, -273.000000)">
            <g id="编组-5" transform="translate(40.000000, 273.000000)">
                <circle id="椭圆形备份-9" stroke="#FFFFFF" stroke-width="2" fill-opacity="0.3" fill="#000000" cx="22" cy="22" r="21"></circle>
                <g id="编组-2" transform="translate(11.004645, 11.022255)" fill="#42E2FF" fill-rule="nonzero">
                    <polygon id="路径" points="-3.22408766e-14 1.96901754 7.92792793 1.96901754 7.92792793 3.45550402 -3.22408766e-14 3.45550402"></polygon>
                    <polygon id="路径" points="-6.83897383e-15 7.36991844 5.8963964 7.36991844 5.8963964 8.85640492 -6.83897383e-15 8.85640492"></polygon>
                    <polygon id="路径" points="-3.22408766e-14 18.0726211 7.92792793 18.0726211 7.92792793 19.5591076 -3.22408766e-14 19.5591076"></polygon>
                    <polygon id="路径" points="-6.83897383e-15 12.7212698 5.8963964 12.7212698 5.8963964 14.2077563 -6.83897383e-15 14.2077563"></polygon>
                    <path d="M12.8333333,21.4419905 C12.2882883,21.4419905 11.7432432,21.2933419 11.2972973,20.9960446 C10.6531532,20.5500986 10.1576577,19.9059545 10.0585586,19.1131617 C9.56306306,16.437486 9.31531532,13.6131617 9.31531532,10.7392878 C9.31531532,7.86541393 9.56306306,5.04108961 10.0585586,2.36541393 C10.2072072,1.57262114 10.6531532,0.878927447 11.2972973,0.48253105 C11.9414414,0.0365851044 12.7342342,-0.112063544 13.527027,0.0861346539 C18.4324324,1.27532384 21.9009009,5.6356842 21.9009009,10.7392878 C21.9009009,15.7933419 18.481982,20.2032518 13.527027,21.392441 C13.2792793,21.4419905 13.0810811,21.4419905 12.8333333,21.4419905 L12.8333333,21.4419905 Z" id="路径"></path>
                </g>
            </g>
        </g>
    </g>
</svg>